<svg width="45" height="67" viewBox="0 0 45 67" fill="none" xmlns="http://www.w3.org/2000/svg">
<path fill-rule="evenodd" clip-rule="evenodd" d="M29.2971 4.10816L29.9544 7.60889L14.0459 7.60889L14.7032 4.10815L29.2971 4.10816ZM34.1081 8.05532C34.4548 9.90177 33.0383 11.6089 31.1596 11.6089H28.6732V14.0247H29.3425C33.3908 14.0247 36.801 17.0487 37.2851 21.0679L39.7914 41.8739C39.9612 43.2836 39.7527 44.7131 39.1874 46.0157L38.0348 48.6715C37.9864 48.783 37.9348 48.8926 37.8803 49H41.7172C43.794 49 45.3485 50.786 44.9322 52.6937L42.3473 64.5398C42.0349 65.9718 40.6911 67 39.1322 67H5.86776C4.30888 67 2.96513 65.9718 2.65267 64.5398L0.067757 52.6937C-0.348516 50.786 1.20604 49 3.28285 49H6.12001C6.06547 48.8926 6.01394 48.783 5.96553 48.6715L4.81287 46.0157C4.24757 44.7131 4.03912 43.2836 4.20893 41.8739L6.71518 21.0679C7.19933 17.0487 10.6095 14.0247 14.6578 14.0247H15.327V11.6089H12.8407C10.962 11.6089 9.54557 9.90176 9.89224 8.05531L10.925 2.55458C11.1913 1.13599 12.4301 0.108154 13.8735 0.108154H30.1269C31.5702 0.108154 32.809 1.13599 33.0754 2.55458L34.1081 8.05532ZM19.327 11.6089V14.0247H21.0002H22.0001H24.6732V11.6089H19.327ZM14.6578 18.0247C12.6336 18.0247 10.9285 19.5367 10.6865 21.5463L8.18022 42.3523C8.09532 43.0571 8.19954 43.7719 8.48219 44.4232L9.63485 47.079C9.95205 47.8099 10.6728 48.2828 11.4695 48.2828H21.0002H22.0001H32.5308C33.3275 48.2828 34.0482 47.8099 34.3654 47.079L35.5181 44.4232C35.8008 43.7719 35.905 43.0571 35.8201 42.3523L33.3138 21.5463C33.0717 19.5367 31.3666 18.0247 29.3425 18.0247H22.0001H21.0002H14.6578ZM4.62321 53.1026L6.76052 62.8975H38.2395L40.3768 53.1026H4.62321ZM16.1567 25.5725C15.0521 25.5725 14.1567 26.4679 14.1567 27.5725C14.1567 28.6771 15.0521 29.5725 16.1567 29.5725H21.9998H22.0001H27.8432C28.9478 29.5725 29.8432 28.6771 29.8432 27.5725C29.8432 26.4679 28.9478 25.5725 27.8432 25.5725H22.0001H21.9998H16.1567ZM14 35.4717C12.8954 35.4717 12 36.3671 12 37.4717C12 38.5763 12.8954 39.4717 14 39.4717H21.9998H22.0001H30C31.1045 39.4717 32 38.5763 32 37.4717C32 36.3671 31.1045 35.4717 30 35.4717H22.0001H21.9998H14Z" fill="url(#paint0_linear_2139_476)"/>
<defs>
<linearGradient id="paint0_linear_2139_476" x1="22.5" y1="0.108154" x2="22.5" y2="67" gradientUnits="userSpaceOnUse">
<stop stop-color="#FFE2E2"/>
<stop offset="1" stop-color="#9F7A6A"/>
</linearGradient>
</defs>
</svg>
