<svg width="65" height="54" viewBox="0 0 65 54" fill="none" xmlns="http://www.w3.org/2000/svg">
<path fill-rule="evenodd" clip-rule="evenodd" d="M36 0.893936C37.1046 0.893936 38 1.78258 38 2.87878V9.82576H45C46.1046 9.82576 47 10.7144 47 11.8106C47 12.9068 46.1046 13.7955 45 13.7955H38V20.7424C38 21.8386 37.1046 22.7273 36 22.7273C34.8954 22.7273 34 21.8386 34 20.7424V13.7955H27C25.8954 13.7955 25 12.9068 25 11.8106C25 10.7144 25.8954 9.82576 27 9.82576H34V2.87878C34 1.78258 34.8954 0.893936 36 0.893936ZM58.2492 25.1671C59.0481 24.7464 60.0394 25.0419 60.4725 25.8299C60.8154 26.4536 60.7141 27.2256 60.2217 27.7414L45.9779 42.6626C44.9419 43.7479 43.6479 44.5578 42.2147 45.0179L31.8106 48.3585C29.7395 49.0235 27.4957 48.921 25.4949 48.07L19.9198 45.6988C18.924 45.2752 17.8519 45.0568 16.7685 45.0568H12V29.178H23.3659C23.5166 29.178 23.6659 29.2081 23.8047 29.2664L33.1955 33.2093C33.8169 33.4702 34.0992 34.1883 33.82 34.7979C33.5743 35.3344 32.9698 35.6117 32.3988 35.4498L21.0494 32.2317C19.9874 31.9305 18.8804 32.5408 18.577 33.5949C18.2735 34.6489 18.8885 35.7475 19.9506 36.0486L31.2999 39.2667C33.7756 39.9687 36.396 38.7668 37.4615 36.4406C37.5245 36.3031 37.5808 36.1643 37.6308 36.0246L58.2492 25.1671ZM16.7685 49.0265H12V51.5076C12 52.6038 11.1046 53.4924 10 53.4924H0V21.7348H10C11.1046 21.7348 12 22.6235 12 23.7197V25.2083H23.3659C24.0521 25.2083 24.7313 25.3451 25.3633 25.6104L34.7541 29.5533C35.8441 30.011 36.6934 30.7932 37.2382 31.7374L56.3743 21.6604C59.1088 20.2205 62.5018 21.2319 63.9841 23.929C65.1575 26.0639 64.8108 28.7061 63.1255 30.4716L48.8817 45.3928C47.3852 46.9604 45.5162 48.1302 43.446 48.7949L33.0419 52.1354C30.0503 53.096 26.8093 52.9479 23.9192 51.7187L18.3441 49.3475C17.8462 49.1357 17.3102 49.0265 16.7685 49.0265ZM8 25.7045H4V49.5227H8V25.7045Z" fill="url(#paint0_linear_2139_712)"/>
<defs>
<linearGradient id="paint0_linear_2139_712" x1="32.3371" y1="0.893936" x2="32.3371" y2="53.4924" gradientUnits="userSpaceOnUse">
<stop stop-color="#FFE2E2"/>
<stop offset="1" stop-color="#9F7A6A"/>
</linearGradient>
</defs>
</svg>
