<svg width="83" height="28" viewBox="0 0 83 28" fill="none" xmlns="http://www.w3.org/2000/svg">
<g clip-path="url(#clip0_2210_9918)">
<path d="M76.2396 9.1e-05H7.30319C7.0519 9.1e-05 6.80364 9.1e-05 6.55302 0.001491C6.34323 0.002891 6.13511 0.006958 5.92331 0.010381C5.46317 0.0159123 5.00412 0.0572644 4.55013 0.134078C4.09679 0.212564 3.65764 0.360532 3.24755 0.572978C2.83796 0.787221 2.46371 1.06561 2.13837 1.39804C1.81132 1.72954 1.5387 2.1127 1.33099 2.5328C1.12271 2.95207 0.978287 3.40135 0.90271 3.86513C0.826415 4.32832 0.785359 4.79686 0.779913 5.26653C0.773554 5.48115 0.772882 5.69648 0.769531 5.91113V22.0911C0.772882 22.3085 0.773554 22.519 0.779913 22.7364C0.785361 23.2061 0.826416 23.6746 0.90271 24.1378C0.978078 24.6018 1.12251 25.0514 1.33099 25.4708C1.53861 25.8895 1.81127 26.2711 2.13837 26.6008C2.46248 26.9347 2.83697 27.2133 3.24755 27.4259C3.65764 27.6389 4.09674 27.7877 4.55013 27.8674C5.00419 27.9436 5.4632 27.985 5.92331 27.9912C6.13511 27.996 6.34323 27.9987 6.55302 27.9987C6.80363 28.0001 7.05192 28.0001 7.30319 28.0001H76.2396C76.4858 28.0001 76.7361 28.0001 76.9824 27.9987C77.1912 27.9987 77.4053 27.996 77.6141 27.9912C78.0733 27.9853 78.5315 27.944 78.9846 27.8674C79.4395 27.7872 79.8801 27.6384 80.2922 27.4259C80.7024 27.2132 81.0766 26.9346 81.4004 26.6008C81.7267 26.2698 81.9999 25.8885 82.2101 25.4708C82.417 25.0511 82.5601 24.6016 82.6343 24.1378C82.7107 23.6745 82.7533 23.2061 82.7615 22.7364C82.7642 22.519 82.7642 22.3085 82.7642 22.0911C82.7695 21.8368 82.7695 21.5839 82.7695 21.3255V6.67538C82.7695 6.41903 82.7695 6.16474 82.7642 5.91113C82.7642 5.69648 82.7642 5.48115 82.7615 5.2665C82.7533 4.79679 82.7107 4.32836 82.6343 3.8651C82.5599 3.40159 82.4168 2.95234 82.2101 2.53277C81.7871 1.69073 81.1164 1.00531 80.2922 0.572915C79.8801 0.360988 79.4394 0.213059 78.9846 0.134015C78.5316 0.0568629 78.0734 0.0154964 77.6141 0.010283C77.4053 0.006867 77.1912 0.002765 76.9824 0.0014C76.7361 0 76.4858 9.1e-05 76.2396 9.1e-05Z" fill="#A6A6A6"/>
<path d="M6.55677 27.3875C6.34798 27.3875 6.14424 27.3848 5.9371 27.38C5.50798 27.3743 5.07987 27.3361 4.65627 27.2658C4.26128 27.1963 3.87865 27.0671 3.52098 26.8823C3.1666 26.6991 2.84338 26.4588 2.56369 26.1707C2.27995 25.886 2.04373 25.5558 1.86438 25.1931C1.68306 24.8281 1.55757 24.4369 1.49229 24.0331C1.42179 23.5992 1.38365 23.1604 1.3782 22.7206C1.37385 22.573 1.36816 22.0814 1.36816 22.0814V5.91103C1.36816 5.91103 1.37422 5.42704 1.37823 5.28485C1.38346 4.84573 1.42138 4.40764 1.49166 3.9744C1.55706 3.56946 1.68264 3.17711 1.86407 2.81093C2.04276 2.44855 2.27767 2.11809 2.55969 1.83236C2.8414 1.54392 3.16566 1.30241 3.52065 1.11663C3.87749 0.932453 4.2594 0.804101 4.65359 0.735877C5.07858 0.664873 5.50818 0.626485 5.93879 0.621035L6.5571 0.612488H76.9794L77.6051 0.621378C78.0318 0.626557 78.4575 0.664603 78.8786 0.735191C79.2768 0.80427 79.6627 0.933519 80.0236 1.11869C80.7348 1.49308 81.3134 2.0854 81.6785 2.81264C81.857 3.17629 81.9806 3.56544 82.0452 3.96688C82.1163 4.40368 82.1561 4.8452 82.1643 5.28793C82.1663 5.48617 82.1663 5.69911 82.1663 5.91103C82.1717 6.17353 82.1717 6.42338 82.1717 6.67528V21.3253C82.1717 21.5797 82.1717 21.8278 82.1663 22.078C82.1663 22.3056 82.1663 22.5142 82.1636 22.7288C82.1556 23.1636 82.1165 23.5972 82.0465 24.0262C81.9826 24.433 81.8578 24.8272 81.6765 25.1952C81.4959 25.5539 81.261 25.8813 80.9805 26.1652C80.7006 26.4549 80.3768 26.6965 80.0216 26.881C79.6617 27.0672 79.2764 27.1969 78.8786 27.2658C78.455 27.3365 78.0269 27.3747 77.5977 27.38C77.397 27.3848 77.1868 27.3875 76.9828 27.3875L76.24 27.3889L6.55677 27.3875Z" fill="black"/>
<path d="M17.7424 14.2105C17.7498 13.6262 17.9017 13.0534 18.1841 12.5452C18.4664 12.037 18.87 11.6101 19.3573 11.3041C19.0477 10.8524 18.6393 10.4808 18.1646 10.2186C17.6898 9.95641 17.1617 9.81092 16.6223 9.79368C15.4716 9.6703 14.3561 10.4971 13.7697 10.4971C13.172 10.4971 12.2691 9.80593 11.2969 9.82636C10.6681 9.84712 10.0553 10.0339 9.5181 10.3686C8.98095 10.7032 8.53781 11.1743 8.23187 11.7359C6.90659 14.0798 7.89513 17.5245 9.16463 19.4191C9.79979 20.3469 10.5421 21.3832 11.5134 21.3464C12.4639 21.3062 12.8189 20.7273 13.9662 20.7273C15.1029 20.7273 15.4359 21.3464 16.427 21.3231C17.4469 21.3062 18.0895 20.3912 18.7023 19.4547C19.1587 18.7936 19.5099 18.063 19.7428 17.2899C19.1503 17.0339 18.6446 16.6054 18.2889 16.0578C17.9332 15.5102 17.7431 14.8677 17.7424 14.2105Z" fill="white"/>
<path d="M15.8702 8.54762C16.4263 7.86568 16.7003 6.98915 16.6339 6.10419C15.7843 6.19534 14.9996 6.61013 14.4359 7.26591C14.1604 7.58628 13.9493 7.95899 13.8148 8.36272C13.6804 8.76646 13.6251 9.19332 13.6522 9.61889C14.0772 9.62336 14.4976 9.52927 14.8818 9.34371C15.266 9.15815 15.6039 8.88595 15.8702 8.54762Z" fill="white"/>
<path d="M29.7577 18.9977H26.5141L25.7352 21.3473H24.3613L27.4336 12.6547H28.861L31.9332 21.3473H30.5359L29.7577 18.9977ZM26.85 17.9136H29.4211L28.1537 14.1005H28.1182L26.85 17.9136Z" fill="white"/>
<path d="M38.5687 18.1788C38.5687 20.1482 37.5368 21.4135 35.9796 21.4135C35.5851 21.4346 35.1928 21.3418 34.8476 21.1457C34.5024 20.9496 34.2182 20.6581 34.0275 20.3047H33.9981V23.4438H32.7246V15.0096H33.9573V16.0637H33.9807C34.1801 15.712 34.4691 15.4221 34.8169 15.2248C35.1648 15.0275 35.5585 14.9302 35.9562 14.9433C37.5307 14.9433 38.5687 16.2148 38.5687 18.1788ZM37.2597 18.1788C37.2597 16.8957 36.6106 16.0521 35.6202 16.0521C34.6472 16.0521 33.9927 16.9134 33.9927 18.1788C33.9927 19.4557 34.6472 20.3109 35.6202 20.3109C36.6106 20.3109 37.2597 19.4735 37.2597 18.1788Z" fill="white"/>
<path d="M45.3968 18.1788C45.3968 20.1483 44.3649 21.4136 42.8077 21.4136C42.4132 21.4347 42.0209 21.3418 41.6757 21.1457C41.3305 20.9496 41.0463 20.6582 40.8557 20.3048H40.8262V23.4438H39.5527V15.0097H40.7854V16.0638H40.8088C41.0082 15.712 41.2972 15.4221 41.645 15.2248C41.9929 15.0275 42.3866 14.9303 42.7843 14.9434C44.3589 14.9434 45.3968 16.2148 45.3968 18.1788ZM44.0879 18.1788C44.0879 16.8957 43.4387 16.0522 42.4483 16.0522C41.4753 16.0522 40.8209 16.9135 40.8209 18.1788C40.8209 19.4558 41.4753 20.3109 42.4483 20.3109C43.4387 20.3109 44.0879 19.4735 44.0879 18.1788Z" fill="white"/>
<path d="M49.9101 18.9253C50.0044 19.7873 50.8242 20.3533 51.9444 20.3533C53.0178 20.3533 53.79 19.7873 53.79 19.01C53.79 18.3353 53.3243 17.9313 52.2214 17.6544L51.1186 17.383C49.5561 16.9975 48.8306 16.251 48.8306 15.0397C48.8306 13.5399 50.1101 12.5097 51.927 12.5097C53.7251 12.5097 54.9578 13.5399 54.9992 15.0397H53.7137C53.6368 14.1722 52.9348 13.6486 51.9089 13.6486C50.883 13.6486 50.1811 14.1784 50.1811 14.9495C50.1811 15.564 50.6294 15.9256 51.7262 16.2025L52.6638 16.4376C54.4097 16.8594 55.1351 17.5758 55.1351 18.8473C55.1351 20.4735 53.867 21.4921 51.85 21.4921C49.9629 21.4921 48.6888 20.4975 48.6064 18.9252L49.9101 18.9253Z" fill="white"/>
<path d="M57.8827 13.5098V15.0096H59.0625V16.0398H57.8827V19.5337C57.8827 20.0764 58.119 20.3294 58.6376 20.3294C58.7776 20.3269 58.9175 20.3168 59.0565 20.2993V21.3233C58.8233 21.3678 58.5863 21.3879 58.3492 21.3834C57.0931 21.3834 56.6032 20.9015 56.6032 19.6724V16.0398H55.7012V15.0096H56.6032V13.5098H57.8827Z" fill="white"/>
<path d="M59.7461 18.1788C59.7461 16.1847 60.8958 14.9317 62.6885 14.9317C64.4873 14.9317 65.6316 16.1847 65.6316 18.1788C65.6316 20.1783 64.4933 21.4258 62.6885 21.4258C60.8844 21.4258 59.7461 20.1783 59.7461 18.1788ZM64.3341 18.1788C64.3341 16.8109 63.7204 16.0036 62.6885 16.0036C61.6566 16.0036 61.0437 16.8171 61.0437 18.1788C61.0437 19.5521 61.6566 20.3533 62.6885 20.3533C63.7204 20.3533 64.3341 19.5521 64.3341 18.1788Z" fill="white"/>
<path d="M66.6816 15.0096H67.8962V16.0883H67.9257C68.0079 15.7514 68.2011 15.4537 68.4728 15.2452C68.7446 15.0366 69.0784 14.9301 69.418 14.9433C69.5647 14.9428 69.7111 14.9591 69.8543 14.9918V16.2086C69.669 16.1508 69.4758 16.1243 69.2821 16.13C69.0971 16.1224 68.9127 16.1557 68.7415 16.2277C68.5703 16.2997 68.4163 16.4087 68.2903 16.5473C68.1642 16.6858 68.069 16.8505 68.0111 17.0302C67.9533 17.2099 67.9342 17.4002 67.9551 17.5881V21.3472H66.6816L66.6816 15.0096Z" fill="white"/>
<path d="M75.7254 19.4858C75.554 20.6363 74.4572 21.4258 73.0539 21.4258C71.2491 21.4258 70.1289 20.1906 70.1289 18.2088C70.1289 16.221 71.2552 14.9317 73.0004 14.9317C74.7169 14.9317 75.7963 16.1362 75.7963 18.0578V18.5035H71.4144V18.5821C71.3942 18.8153 71.4228 19.0503 71.4983 19.2714C71.5738 19.4925 71.6945 19.6946 71.8523 19.8644C72.0102 20.0342 72.2016 20.1677 72.4138 20.2561C72.6261 20.3445 72.8543 20.3858 73.0834 20.3772C73.3843 20.406 73.6863 20.3348 73.9445 20.1742C74.2026 20.0136 74.4031 19.7722 74.5161 19.4858L75.7254 19.4858ZM71.4204 17.5943H74.5221C74.5336 17.3846 74.5025 17.1747 74.4307 16.9779C74.359 16.781 74.2482 16.6014 74.1053 16.4504C73.9624 16.2994 73.7905 16.1801 73.6004 16.1002C73.4102 16.0202 73.206 15.9813 73.0004 15.9858C72.793 15.9845 72.5875 16.0252 72.3956 16.1056C72.2037 16.1859 72.0292 16.3042 71.8823 16.4538C71.7354 16.6033 71.619 16.7811 71.5397 16.9768C71.4605 17.1726 71.4199 17.3825 71.4204 17.5943Z" fill="white"/>
<path d="M26.6898 6.11167C26.9568 6.0921 27.2247 6.1333 27.4742 6.23231C27.7237 6.33131 27.9486 6.48565 28.1326 6.68418C28.3167 6.88272 28.4553 7.12051 28.5385 7.3804C28.6217 7.64029 28.6474 7.9158 28.6137 8.18706C28.6137 9.52144 27.9077 10.2885 26.6898 10.2885H25.2129V6.11167H26.6898ZM25.8479 9.69777H26.6189C26.8096 9.70942 27.0006 9.67747 27.1777 9.60424C27.3549 9.53101 27.5138 9.41834 27.643 9.27445C27.7722 9.13055 27.8683 8.95905 27.9244 8.77241C27.9805 8.58578 27.9951 8.38872 27.9673 8.19557C27.9931 8.00319 27.977 7.80735 27.92 7.62208C27.8631 7.43682 27.7667 7.26672 27.6378 7.12397C27.509 6.98122 27.3508 6.86935 27.1746 6.79638C26.9984 6.72342 26.8087 6.69116 26.6189 6.70192H25.8479V9.69777Z" fill="white"/>
<path d="M29.3311 8.71103C29.3117 8.50388 29.3349 8.29489 29.3992 8.09744C29.4635 7.89999 29.5675 7.71845 29.7045 7.56446C29.8415 7.41047 30.0085 7.28744 30.1948 7.20325C30.3811 7.11905 30.5826 7.07556 30.7863 7.07556C30.99 7.07556 31.1914 7.11905 31.3777 7.20325C31.564 7.28744 31.731 7.41047 31.868 7.56446C32.005 7.71845 32.109 7.89999 32.1733 8.09744C32.2376 8.29489 32.2608 8.50388 32.2414 8.71103C32.2612 8.91838 32.2383 9.12767 32.1741 9.32544C32.11 9.5232 32.0061 9.70508 31.869 9.85937C31.732 10.0137 31.5648 10.137 31.3784 10.2213C31.1919 10.3057 30.9902 10.3493 30.7863 10.3493C30.5823 10.3493 30.3806 10.3057 30.1941 10.2213C30.0077 10.137 29.8405 10.0137 29.7035 9.85937C29.5665 9.70508 29.4625 9.5232 29.3984 9.32544C29.3343 9.12767 29.3113 8.91838 29.3311 8.71103ZM31.615 8.71103C31.615 8.02778 31.3146 7.62822 30.7873 7.62822C30.2579 7.62822 29.9602 8.02778 29.9602 8.71103C29.9602 9.39976 30.258 9.79624 30.7873 9.79624C31.3146 9.79623 31.615 9.39701 31.615 8.71103Z" fill="white"/>
<path d="M36.1096 10.2884H35.4779L34.8401 7.96692H34.792L34.1569 10.2884H33.5312L32.6807 7.13635H33.2983L33.8511 9.54155H33.8966L34.531 7.13635H35.1152L35.7496 9.54155H35.7978L36.3478 7.13635H36.9568L36.1096 10.2884Z" fill="white"/>
<path d="M37.6729 7.13633H38.2591V7.63707H38.3046C38.3818 7.45722 38.512 7.30646 38.677 7.2058C38.8421 7.10513 39.0338 7.05958 39.2254 7.07549C39.3755 7.06396 39.5263 7.08708 39.6665 7.14315C39.8067 7.19922 39.9327 7.28679 40.0353 7.39938C40.1379 7.51197 40.2143 7.6467 40.259 7.79357C40.3037 7.94044 40.3154 8.0957 40.2934 8.24785V10.2884H39.6844V8.40406C39.6844 7.89752 39.469 7.64561 39.0186 7.64561C38.9167 7.64076 38.8149 7.65849 38.7203 7.69757C38.6257 7.73665 38.5405 7.79616 38.4705 7.87203C38.4005 7.9479 38.3474 8.03833 38.3149 8.13712C38.2823 8.23591 38.271 8.34073 38.2818 8.44439V10.2884H37.6729L37.6729 7.13633Z" fill="white"/>
<path d="M41.2637 5.90588H41.8726V10.2884H41.2637V5.90588Z" fill="white"/>
<path d="M42.7188 8.71102C42.6994 8.50387 42.7226 8.29486 42.7869 8.0974C42.8512 7.89995 42.9553 7.7184 43.0923 7.56441C43.2293 7.41042 43.3963 7.28738 43.5826 7.20319C43.7689 7.11899 43.9704 7.0755 44.1741 7.0755C44.3778 7.0755 44.5793 7.11899 44.7656 7.20319C44.9519 7.28738 45.1189 7.41042 45.2559 7.56441C45.393 7.7184 45.497 7.89995 45.5613 8.0974C45.6256 8.29486 45.6488 8.50387 45.6294 8.71102C45.6492 8.91839 45.6262 9.12768 45.5621 9.32544C45.4979 9.52321 45.394 9.70508 45.2569 9.85936C45.1199 10.0137 44.9527 10.1369 44.7662 10.2213C44.5798 10.3057 44.3781 10.3493 44.1741 10.3493C43.9702 10.3493 43.7685 10.3057 43.582 10.2213C43.3955 10.1369 43.2284 10.0137 43.0913 9.85936C42.9542 9.70508 42.8503 9.52321 42.7861 9.32544C42.722 9.12768 42.699 8.91839 42.7188 8.71102ZM45.0027 8.71102C45.0027 8.02777 44.7023 7.62822 44.1749 7.62822C43.6456 7.62822 43.3478 8.02778 43.3478 8.71103C43.3478 9.39975 43.6456 9.79623 44.1749 9.79623C44.7023 9.79623 45.0027 9.39701 45.0027 8.71102Z" fill="white"/>
<path d="M46.2705 9.39698C46.2705 8.8296 46.6841 8.5025 47.4182 8.45601L48.254 8.4068V8.13473C48.254 7.80181 48.0385 7.61383 47.6223 7.61383C47.2823 7.61383 47.0468 7.74132 46.9792 7.96417H46.3896C46.4519 7.42276 46.9504 7.0755 47.6504 7.0755C48.424 7.0755 48.8603 7.4689 48.8603 8.13473V10.2884H48.2741V9.84542H48.2259C48.1281 10.0043 47.9908 10.1339 47.8279 10.2208C47.6651 10.3077 47.4826 10.349 47.2991 10.3403C47.1695 10.3541 47.0386 10.34 46.9147 10.2989C46.7909 10.2578 46.6768 10.1906 46.5799 10.1018C46.483 10.0129 46.4054 9.90425 46.3521 9.78286C46.2988 9.66147 46.271 9.53002 46.2705 9.39698ZM48.254 9.12764V8.86412L47.5005 8.91334C47.0755 8.94239 46.8828 9.09004 46.8828 9.36792C46.8828 9.65161 47.1237 9.8167 47.455 9.8167C47.5521 9.82674 47.6501 9.81673 47.7433 9.78726C47.8365 9.7578 47.9229 9.70949 47.9975 9.6452C48.072 9.58091 48.1332 9.50196 48.1772 9.41305C48.2213 9.32413 48.2474 9.22707 48.254 9.12764Z" fill="white"/>
<path d="M49.6611 8.71102C49.6611 7.71503 50.1624 7.08407 50.942 7.08407C51.1348 7.07499 51.3262 7.12217 51.4938 7.2201C51.6613 7.31803 51.7981 7.46265 51.8882 7.63707H51.9337V5.90588H52.5427V10.2884H51.9591V9.7904H51.911C51.8139 9.96364 51.6723 10.1065 51.5015 10.2034C51.3307 10.3003 51.1372 10.3477 50.942 10.3403C50.157 10.3404 49.6611 9.70941 49.6611 8.71102ZM50.2902 8.71102C50.2902 9.37958 50.5987 9.78187 51.1146 9.78187C51.6279 9.78187 51.9451 9.37377 51.9451 8.71376C51.9451 8.05682 51.6246 7.64291 51.1146 7.64291C50.602 7.64291 50.2902 8.04793 50.2902 8.71102Z" fill="white"/>
<path d="M55.0616 8.71103C55.0422 8.50388 55.0654 8.29489 55.1297 8.09744C55.194 7.89999 55.298 7.71845 55.435 7.56446C55.572 7.41047 55.739 7.28744 55.9253 7.20325C56.1116 7.11905 56.313 7.07556 56.5167 7.07556C56.7204 7.07556 56.9219 7.11905 57.1082 7.20325C57.2945 7.28744 57.4615 7.41047 57.5985 7.56446C57.7355 7.71845 57.8395 7.89999 57.9038 8.09744C57.9681 8.29489 57.9913 8.50388 57.9719 8.71103C57.9917 8.91838 57.9687 9.12767 57.9046 9.32544C57.8405 9.5232 57.7365 9.70508 57.5995 9.85937C57.4624 10.0137 57.2953 10.137 57.1088 10.2213C56.9224 10.3057 56.7207 10.3493 56.5167 10.3493C56.3128 10.3493 56.1111 10.3057 55.9246 10.2213C55.7381 10.137 55.571 10.0137 55.434 9.85937C55.2969 9.70508 55.193 9.5232 55.1289 9.32544C55.0647 9.12767 55.0418 8.91838 55.0616 8.71103ZM57.3455 8.71103C57.3455 8.02778 57.045 7.62822 56.5177 7.62822C55.9884 7.62822 55.6906 8.02778 55.6906 8.71103C55.6906 9.39976 55.9884 9.79624 56.5177 9.79624C57.0451 9.79623 57.3455 9.39701 57.3455 8.71103Z" fill="white"/>
<path d="M58.7891 7.13633H59.3753V7.63707H59.4208C59.498 7.45722 59.6282 7.30646 59.7932 7.2058C59.9583 7.10513 60.15 7.05958 60.3416 7.07549C60.4917 7.06396 60.6425 7.08708 60.7827 7.14315C60.9229 7.19922 61.0489 7.28679 61.1515 7.39938C61.2541 7.51197 61.3305 7.6467 61.3752 7.79357C61.4199 7.94044 61.4317 8.0957 61.4096 8.24785V10.2884H60.8007V8.40406C60.8007 7.89752 60.5852 7.64561 60.1348 7.64561C60.0329 7.64076 59.9311 7.65849 59.8365 7.69757C59.7419 7.73665 59.6567 7.79616 59.5867 7.87203C59.5167 7.9479 59.4636 8.03833 59.4311 8.13712C59.3985 8.23591 59.3872 8.34073 59.398 8.44439V10.2884H58.7891V7.13633Z" fill="white"/>
<path d="M64.8505 6.35162V7.15074H65.519V7.67472H64.8505V9.29552C64.8505 9.6257 64.9836 9.77028 65.2868 9.77028C65.3644 9.77002 65.4419 9.76523 65.519 9.75592V10.2741C65.4096 10.2941 65.2988 10.3047 65.1877 10.3059C64.5105 10.3059 64.2408 10.0625 64.2408 9.45479V7.67469H63.751V7.15072H64.2408V6.35162H64.8505Z" fill="white"/>
<path d="M66.3516 5.90588H66.9552V7.6429H67.0033C67.0843 7.46137 67.2181 7.30976 67.3864 7.20872C67.5548 7.10767 67.7496 7.06212 67.9442 7.07825C68.0936 7.06995 68.2429 7.09542 68.3815 7.15285C68.5201 7.21028 68.6446 7.29825 68.7461 7.41049C68.8476 7.52272 68.9236 7.65646 68.9687 7.80215C69.0137 7.94785 69.0268 8.10191 69.0069 8.25335V10.2884H68.3973V8.40681C68.3973 7.90334 68.1677 7.64836 67.7375 7.64836C67.6328 7.63959 67.5275 7.65429 67.429 7.69143C67.3305 7.72856 67.2411 7.78724 67.1671 7.86336C67.0931 7.93948 67.0363 8.03119 67.0006 8.13209C66.9649 8.23298 66.9513 8.34062 66.9606 8.44748V10.2884H66.3516L66.3516 5.90588Z" fill="white"/>
<path d="M72.5568 9.43731C72.4741 9.72538 72.2948 9.97457 72.0504 10.1413C71.806 10.308 71.512 10.3816 71.2198 10.3492C71.0165 10.3547 70.8145 10.3149 70.6277 10.2327C70.441 10.1504 70.274 10.0276 70.1384 9.87279C70.0028 9.718 69.9018 9.53491 69.8424 9.33623C69.783 9.13756 69.7666 8.92806 69.7944 8.72227C69.7673 8.51585 69.784 8.3059 69.8433 8.10663C69.9025 7.90736 70.003 7.72342 70.1379 7.56727C70.2728 7.41112 70.439 7.2864 70.6252 7.20155C70.8114 7.11671 71.0132 7.07372 71.2171 7.07549C72.0757 7.07549 72.5936 7.67469 72.5936 8.66449V8.88156H70.4147V8.91642C70.4052 9.03209 70.4194 9.14852 70.4565 9.25824C70.4936 9.36797 70.5527 9.46857 70.6301 9.55358C70.7075 9.6386 70.8014 9.70617 70.9058 9.75195C71.0102 9.79772 71.1229 9.8207 71.2365 9.81942C71.3822 9.83728 71.5298 9.81048 71.6605 9.74244C71.7912 9.6744 71.8991 9.56817 71.9706 9.43729L72.5568 9.43731ZM70.4147 8.42149H71.9733C71.981 8.3157 71.9669 8.20944 71.932 8.10954C71.897 8.00963 71.8421 7.9183 71.7705 7.8414C71.699 7.7645 71.6125 7.70373 71.5166 7.66301C71.4207 7.62229 71.3176 7.60251 71.2137 7.60494C71.1084 7.60359 71.0039 7.62379 70.9063 7.66435C70.8088 7.70491 70.7202 7.76501 70.6457 7.84111C70.5712 7.91721 70.5124 8.00777 70.4728 8.10744C70.4331 8.20712 70.4134 8.3139 70.4147 8.42149Z" fill="white"/>
</g>
<defs>
<clipPath id="clip0_2210_9918">
<rect width="82" height="28" fill="white" transform="translate(0.769531)"/>
</clipPath>
</defs>
</svg>
