<svg width="55" height="50" viewBox="0 0 55 50" fill="none" xmlns="http://www.w3.org/2000/svg">
<path d="M3.51123 28.7618C3.64295 28.7621 3.76945 28.7103 3.86323 28.6178L4.61623 27.8648C4.67354 27.8219 4.72095 27.7671 4.75523 27.7042C4.78952 27.6413 4.8099 27.5717 4.81497 27.5003C4.82005 27.4288 4.80972 27.3571 4.78467 27.29C4.75962 27.2229 4.72044 27.1619 4.66979 27.1113C4.61913 27.0606 4.55818 27.0215 4.49107 26.9964C4.42396 26.9714 4.35224 26.961 4.28079 26.9661C4.20933 26.9712 4.1398 26.9916 4.07691 27.0258C4.01401 27.0601 3.95921 27.1075 3.91623 27.1648L3.16823 27.9178C3.09925 27.9867 3.0522 28.0744 3.03305 28.17C3.0139 28.2655 3.0235 28.3646 3.06063 28.4547C3.09776 28.5448 3.16076 28.6219 3.24167 28.6762C3.32259 28.7305 3.41778 28.7596 3.51523 28.7598L3.51123 28.7618Z" fill="white"/>
<path d="M0.147929 31.6353C0.241394 31.7269 0.367052 31.7782 0.497929 31.7782C0.628805 31.7782 0.754465 31.7269 0.847929 31.6353L1.59593 30.8823C1.66814 30.786 1.7032 30.6669 1.69467 30.5468C1.68614 30.4268 1.63459 30.3138 1.54948 30.2287C1.46438 30.1436 1.35143 30.0921 1.23137 30.0835C1.11132 30.075 0.992215 30.1101 0.895929 30.1823L0.142929 30.9353C0.0513156 31.0287 0 31.1544 0 31.2853C0 31.4162 0.0513156 31.5418 0.142929 31.6353H0.147929Z" fill="white"/>
<path d="M0.146835 27.1682C0.0552219 27.2617 0.00390625 27.3873 0.00390625 27.5182C0.00390625 27.6491 0.0552219 27.7747 0.146835 27.8682L0.899836 28.6212C0.945798 28.6672 1.00036 28.7036 1.06042 28.7285C1.12047 28.7534 1.18483 28.7662 1.24984 28.7662C1.31484 28.7662 1.3792 28.7534 1.43925 28.7285C1.49931 28.7036 1.55387 28.6672 1.59984 28.6212C1.6458 28.5752 1.68226 28.5207 1.70713 28.4606C1.73201 28.4006 1.74481 28.3362 1.74481 28.2712C1.74481 28.2062 1.73201 28.1418 1.70713 28.0818C1.68226 28.0217 1.6458 27.9672 1.59984 27.9212L0.851835 27.1682C0.758371 27.0766 0.632711 27.0253 0.501835 27.0253C0.370959 27.0253 0.2453 27.0766 0.151835 27.1682H0.146835Z" fill="white"/>
<path d="M3.16359 30.883L3.91159 31.636C3.95458 31.6933 4.00937 31.7407 4.07227 31.775C4.13516 31.8093 4.20469 31.8297 4.27615 31.8348C4.34761 31.8398 4.41932 31.8295 4.48643 31.8045C4.55355 31.7794 4.61449 31.7402 4.66515 31.6896C4.7158 31.6389 4.75498 31.578 4.78003 31.5108C4.80508 31.4437 4.81541 31.372 4.81034 31.3006C4.80526 31.2291 4.78488 31.1596 4.7506 31.0967C4.71631 31.0338 4.6689 30.979 4.61159 30.936L3.85859 30.183C3.76231 30.1108 3.6432 30.0757 3.52315 30.0843C3.4031 30.0928 3.29015 30.1444 3.20504 30.2295C3.11993 30.3146 3.06838 30.4275 3.05985 30.5476C3.05132 30.6676 3.08638 30.7867 3.15859 30.883H3.16359Z" fill="white"/>
<path d="M45.1824 8.28391C45.3141 8.28415 45.4406 8.23241 45.5344 8.13992L46.2874 7.38691C46.3596 7.29063 46.3947 7.17152 46.3861 7.05147C46.3776 6.93141 46.3261 6.81847 46.2409 6.73336C46.1558 6.64826 46.0429 6.5967 45.9228 6.58817C45.8028 6.57964 45.6837 6.6147 45.5874 6.68691L44.8394 7.43492C44.772 7.50475 44.7264 7.59268 44.7082 7.68798C44.6899 7.78328 44.6998 7.88184 44.7365 7.97163C44.7733 8.06142 44.8354 8.13857 44.9153 8.19367C44.9952 8.24876 45.0894 8.27943 45.1864 8.28192L45.1824 8.28391Z" fill="white"/>
<path d="M41.8206 11.1659C41.9141 11.2575 42.0398 11.3088 42.1706 11.3088C42.3015 11.3088 42.4272 11.2575 42.5206 11.1659L43.2686 10.4129C43.3321 10.3176 43.3609 10.2034 43.3503 10.0894C43.3397 9.97542 43.2903 9.86851 43.2103 9.78656C43.1304 9.70461 43.0247 9.65259 42.911 9.63918C42.7973 9.62578 42.6824 9.6518 42.5856 9.71291L41.8326 10.4659C41.7394 10.5578 41.6859 10.6826 41.6837 10.8135C41.6814 10.9443 41.7306 11.0709 41.8206 11.1659Z" fill="white"/>
<path d="M42.5867 8.15484C42.6297 8.21214 42.6844 8.25955 42.7473 8.29384C42.8102 8.32813 42.8798 8.3485 42.9512 8.35358C43.0227 8.35866 43.0944 8.34832 43.1615 8.32327C43.2286 8.29822 43.2896 8.25904 43.3402 8.20839C43.3909 8.15774 43.4301 8.09679 43.4551 8.02967C43.4802 7.96256 43.4905 7.89085 43.4854 7.81939C43.4803 7.74794 43.46 7.6784 43.4257 7.61551C43.3914 7.55261 43.344 7.49782 43.2867 7.45484L42.5387 6.70684C42.4957 6.64953 42.4409 6.60212 42.378 6.56783C42.3151 6.53354 42.2456 6.51317 42.1741 6.50809C42.1027 6.50302 42.0309 6.51335 41.9638 6.5384C41.8967 6.56345 41.8358 6.60263 41.7851 6.65328C41.7345 6.70394 41.6953 6.76488 41.6702 6.832C41.6452 6.89911 41.6349 6.97083 41.6399 7.04228C41.645 7.11374 41.6654 7.18327 41.6997 7.24616C41.734 7.30906 41.7814 7.36385 41.8387 7.40684L42.5867 8.15484Z" fill="white"/>
<path d="M44.8359 10.4133L45.5839 11.1663C45.6268 11.2236 45.6816 11.271 45.7445 11.3053C45.8074 11.3396 45.877 11.3599 45.9484 11.365C46.0199 11.3701 46.0916 11.3598 46.1587 11.3347C46.2258 11.3097 46.2868 11.2705 46.3374 11.2198C46.3881 11.1692 46.4272 11.1082 46.4523 11.0411C46.4773 10.974 46.4877 10.9023 46.4826 10.8308C46.4775 10.7594 46.4571 10.6898 46.4229 10.627C46.3886 10.5641 46.3412 10.5093 46.2839 10.4663L45.5559 9.71328C45.4596 9.64106 45.3405 9.60601 45.2204 9.61454C45.1004 9.62307 44.9874 9.67462 44.9023 9.75973C44.8172 9.84483 44.7657 9.95778 44.7571 10.0778C44.7486 10.1979 44.7836 10.317 44.8559 10.4133H44.8359Z" fill="white"/>
<path d="M13.5986 6.85657C13.7304 6.85681 13.8569 6.80506 13.9506 6.71257L14.7036 5.95957C14.761 5.91659 14.8084 5.86179 14.8426 5.7989C14.8769 5.736 14.8973 5.66647 14.9024 5.59502C14.9075 5.52356 14.8971 5.45185 14.8721 5.38473C14.847 5.31762 14.8079 5.25667 14.7572 5.20602C14.7065 5.15536 14.6456 5.11619 14.5785 5.09114C14.5114 5.06609 14.4397 5.05575 14.3682 5.06083C14.2967 5.06591 14.2272 5.08628 14.1643 5.12057C14.1014 5.15486 14.0466 5.20226 14.0036 5.25957L13.2506 6.01257C13.1846 6.08291 13.1404 6.17085 13.1232 6.26578C13.106 6.36071 13.1167 6.45858 13.1539 6.54758C13.1911 6.63659 13.2533 6.71293 13.3329 6.7674C13.4125 6.82187 13.5062 6.85214 13.6026 6.85457L13.5986 6.85657Z" fill="white"/>
<path d="M10.2367 9.72878C10.3301 9.8204 10.4558 9.87171 10.5867 9.87171C10.7176 9.87171 10.8432 9.8204 10.9367 9.72878L11.6897 8.97578C11.7619 8.8795 11.797 8.76039 11.7884 8.64034C11.7799 8.52028 11.7283 8.40733 11.6432 8.32223C11.5581 8.23712 11.4452 8.18557 11.3251 8.17704C11.2051 8.16851 11.086 8.20357 10.9897 8.27578L10.2367 9.02878C10.1451 9.12225 10.0938 9.24791 10.0938 9.37878C10.0938 9.50966 10.1451 9.63532 10.2367 9.72878Z" fill="white"/>
<path d="M10.9882 6.71452C11.081 6.80735 11.2069 6.8595 11.3382 6.8595C11.4694 6.8595 11.5953 6.80735 11.6882 6.71452C11.781 6.6217 11.8331 6.4958 11.8331 6.36452C11.8331 6.23325 11.781 6.10735 11.6882 6.01452L10.9352 5.26152C10.8922 5.20421 10.8374 5.15681 10.7745 5.12252C10.7116 5.08823 10.6421 5.06786 10.5706 5.06278C10.4991 5.0577 10.4274 5.06804 10.3603 5.09309C10.2932 5.11814 10.2323 5.15732 10.1816 5.20797C10.1309 5.25863 10.0918 5.31957 10.0667 5.38669C10.0417 5.4538 10.0313 5.52551 10.0364 5.59697C10.0415 5.66842 10.0619 5.73795 10.0962 5.80085C10.1304 5.86375 10.1778 5.91854 10.2352 5.96152L10.9882 6.71452Z" fill="white"/>
<path d="M13.2484 8.9775L14.0014 9.7305C14.0444 9.78781 14.0992 9.83521 14.1621 9.8695C14.225 9.90379 14.2945 9.92416 14.366 9.92924C14.4375 9.93432 14.5092 9.92398 14.5763 9.89894C14.6434 9.87389 14.7043 9.83471 14.755 9.78405C14.8056 9.7334 14.8448 9.67245 14.8699 9.60534C14.8949 9.53823 14.9053 9.46651 14.9002 9.39506C14.8951 9.3236 14.8747 9.25407 14.8404 9.19117C14.8062 9.12828 14.7587 9.07348 14.7014 9.0305L13.9484 8.2875C13.8522 8.21529 13.733 8.18023 13.613 8.18876C13.4929 8.19729 13.38 8.24884 13.2949 8.33395C13.2098 8.41905 13.1582 8.532 13.1497 8.65206C13.1412 8.77211 13.1762 8.89121 13.2484 8.9875V8.9775Z" fill="white"/>
<path d="M46.1621 41.8772C46.1621 41.9947 46.1969 42.1095 46.2622 42.2072C46.3275 42.3049 46.4203 42.381 46.5288 42.426C46.6373 42.4709 46.7568 42.4827 46.872 42.4598C46.9872 42.4369 47.0931 42.3803 47.1761 42.2972C47.2592 42.2142 47.3158 42.1083 47.3387 41.9931C47.3616 41.8779 47.3499 41.7584 47.3049 41.6499C47.2599 41.5414 47.1838 41.4486 47.0861 41.3833C46.9884 41.318 46.8736 41.2832 46.7561 41.2832C46.5986 41.2832 46.4475 41.3458 46.3361 41.4572C46.2247 41.5686 46.1621 41.7197 46.1621 41.8772Z" fill="white"/>
<path d="M53.2466 11.6713C53.2466 11.5538 53.2118 11.4389 53.1465 11.3413C53.0812 11.2436 52.9884 11.1674 52.8799 11.1225C52.7714 11.0775 52.6519 11.0658 52.5367 11.0887C52.4215 11.1116 52.3156 11.1682 52.2326 11.2513C52.1495 11.3343 52.0929 11.4402 52.07 11.5554C52.0471 11.6706 52.0588 11.79 52.1038 11.8986C52.1488 12.0071 52.2249 12.0999 52.3226 12.1652C52.4203 12.2304 52.5351 12.2653 52.6526 12.2653C52.8101 12.2653 52.9612 12.2027 53.0726 12.0913C53.184 11.9799 53.2466 11.8288 53.2466 11.6713Z" fill="white"/>
<path d="M41.186 28.0003C41.1879 27.8818 41.1544 27.7654 41.0896 27.6661C41.0249 27.5668 40.9319 27.4891 40.8227 27.4431C40.7135 27.3971 40.593 27.3848 40.4767 27.4078C40.3604 27.4308 40.2537 27.4881 40.1702 27.5723C40.0868 27.6564 40.0304 27.7637 40.0084 27.8801C39.9864 27.9966 39.9997 28.117 40.0467 28.2258C40.0936 28.3347 40.1721 28.427 40.2719 28.4908C40.3718 28.5547 40.4885 28.5873 40.607 28.5843C40.7602 28.5804 40.906 28.5175 41.0139 28.4087C41.1218 28.2999 41.1834 28.1535 41.186 28.0003Z" fill="white"/>
<path d="M38.05 5.06396C38.1679 5.06494 38.2834 5.03082 38.3818 4.96594C38.4803 4.90105 38.5572 4.80833 38.6028 4.69959C38.6483 4.59085 38.6605 4.471 38.6378 4.35532C38.615 4.23963 38.5583 4.13333 38.475 4.04996C38.3916 3.96658 38.2853 3.90991 38.1696 3.88715C38.0539 3.86439 37.9341 3.87657 37.8253 3.92215C37.7166 3.96773 37.6239 4.04464 37.559 4.14308C37.4941 4.24153 37.46 4.35706 37.461 4.47496C37.4623 4.63077 37.5247 4.77982 37.6349 4.89C37.7451 5.00018 37.8941 5.06265 38.05 5.06396Z" fill="white"/>
<path d="M14.4064 14.1083C14.2694 14.1083 14.1366 14.1557 14.0306 14.2424C13.9245 14.3291 13.8517 14.4498 13.8244 14.584C13.7971 14.7183 13.8171 14.8578 13.8809 14.9791C13.9448 15.1003 14.0485 15.1957 14.1747 15.2492C14.3008 15.3026 14.4416 15.3109 14.5731 15.2724C14.7046 15.234 14.8187 15.1513 14.8963 15.0384C14.9738 14.9254 15.0099 14.7891 14.9984 14.6526C14.987 14.5161 14.9287 14.3877 14.8334 14.2893C14.778 14.232 14.7117 14.1865 14.6383 14.1554C14.565 14.1243 14.4861 14.1083 14.4064 14.1083Z" fill="white"/>
<path d="M6.64089 35.1622C6.77703 35.1611 6.90856 35.1128 7.01312 35.0256C7.11767 34.9384 7.18879 34.8177 7.21438 34.684C7.23997 34.5502 7.21844 34.4118 7.15347 34.2921C7.08849 34.1725 6.98407 34.0791 6.85798 34.0277C6.73189 33.9764 6.5919 33.9703 6.46184 34.0106C6.33177 34.0508 6.21966 34.1348 6.14457 34.2484C6.06948 34.362 6.03605 34.498 6.04996 34.6335C6.06387 34.7689 6.12427 34.8953 6.22089 34.9912C6.33276 35.1015 6.48378 35.163 6.64089 35.1622Z" fill="white"/>
<path d="M2.18359 40.8225C2.18359 40.94 2.21843 41.0548 2.2837 41.1525C2.34897 41.2502 2.44174 41.3263 2.55028 41.3713C2.65882 41.4163 2.77825 41.428 2.89348 41.4051C3.0087 41.3822 3.11454 41.3256 3.19761 41.2425C3.28069 41.1595 3.33726 41.0536 3.36018 40.9384C3.3831 40.8232 3.37134 40.7037 3.32638 40.5952C3.28142 40.4867 3.20528 40.3939 3.1076 40.3286C3.00992 40.2634 2.89508 40.2285 2.77759 40.2285C2.62006 40.2285 2.46897 40.2911 2.35757 40.4025C2.24618 40.5139 2.18359 40.665 2.18359 40.8225Z" fill="white"/>
<path d="M3.95753 10.1162C3.95753 9.99873 3.92269 9.88389 3.85742 9.78621C3.79216 9.68853 3.69938 9.61239 3.59085 9.56743C3.48231 9.52247 3.36287 9.51071 3.24765 9.53363C3.13242 9.55655 3.02658 9.61312 2.94351 9.69619C2.86044 9.77927 2.80386 9.88511 2.78095 10.0003C2.75803 10.1156 2.76979 10.235 2.81475 10.3435C2.85971 10.4521 2.93584 10.5448 3.03352 10.6101C3.13121 10.6754 3.24605 10.7102 3.36353 10.7102C3.52107 10.7102 3.67216 10.6476 3.78355 10.5362C3.89495 10.4248 3.95753 10.2738 3.95753 10.1162Z" fill="white"/>
<path d="M3.14453 37.3115C3.14453 37.4441 3.19721 37.5713 3.29098 37.6651C3.38475 37.7588 3.51192 37.8115 3.64453 37.8115C7.03782 37.859 10.3602 38.7896 13.2845 40.5115C13.3954 40.5552 13.5182 40.5577 13.6309 40.5188C13.7435 40.4799 13.8385 40.4021 13.8988 40.2993C13.9591 40.1965 13.9808 40.0756 13.9598 39.9583C13.9388 39.841 13.8767 39.7351 13.7845 39.6595C10.7072 37.8462 7.211 36.8647 3.63953 36.8115C3.50779 36.8128 3.3819 36.8661 3.28921 36.9597C3.19652 37.0534 3.14452 37.1798 3.14453 37.3115Z" fill="white"/>
<path d="M54.1502 37.3115C54.1502 37.1789 54.0975 37.0517 54.0037 36.958C53.9099 36.8642 53.7828 36.8115 53.6502 36.8115C52.96 36.8141 52.2706 36.8555 51.5852 36.9355C51.5146 36.9312 51.4439 36.9419 51.3777 36.967C51.3115 36.992 51.2515 37.0308 51.2014 37.0808C51.1513 37.1307 51.1125 37.1908 51.0873 37.2569C51.0622 37.323 51.0514 37.3937 51.0556 37.4643C51.0598 37.5349 51.0789 37.6038 51.1117 37.6665C51.1445 37.7292 51.1902 37.7841 51.2459 37.8278C51.3015 37.8715 51.3658 37.9029 51.4344 37.9199C51.5031 37.9369 51.5746 37.9392 51.6442 37.9265H51.6982C52.3456 37.8482 52.997 37.8084 53.6492 37.8075C53.7818 37.8075 53.9089 37.7548 54.0027 37.6611C54.0965 37.5673 54.1492 37.4401 54.1492 37.3075L54.1502 37.3115Z" fill="white"/>
<path d="M48.1229 38.0607C48.1095 38.018 48.0878 37.9782 48.0589 37.9439C48.0301 37.9096 47.9947 37.8813 47.9549 37.8607C47.9155 37.8405 47.8725 37.8284 47.8283 37.8251C47.7842 37.8219 47.7398 37.8275 47.6979 37.8417C44.1579 39.0417 40.5879 41.8807 40.5879 45.5297C40.5879 45.6186 40.6232 45.7038 40.686 45.7666C40.7488 45.8294 40.834 45.8647 40.9229 45.8647C41.0117 45.8647 41.0969 45.8294 41.1598 45.7666C41.2226 45.7038 41.2579 45.6186 41.2579 45.5297C41.2579 42.2217 44.6069 39.6067 47.9089 38.4877C47.9934 38.4588 48.0631 38.3978 48.1031 38.318C48.1432 38.2381 48.1502 38.1458 48.1229 38.0607Z" fill="white"/>
<path d="M6.70942 29.2288C6.64435 29.2194 6.57806 29.2228 6.51432 29.239C6.45059 29.2552 6.39066 29.2837 6.33797 29.3231C6.23154 29.4025 6.16102 29.5209 6.14192 29.6523C6.12283 29.7838 6.15672 29.9174 6.23614 30.0238C6.31556 30.1302 6.43401 30.2007 6.56542 30.2198C11.0383 30.8823 15.1254 33.1263 18.0851 36.5447C21.0448 39.9631 22.6809 44.3292 22.6964 48.8508C22.6869 48.9215 22.6926 48.9934 22.7131 49.0617C22.7336 49.13 22.7685 49.1931 22.8155 49.2468C22.8624 49.3005 22.9203 49.3435 22.9852 49.373C23.0501 49.4025 23.1206 49.4178 23.1919 49.4178C23.2632 49.4178 23.3337 49.4025 23.3987 49.373C23.4636 49.3435 23.5215 49.3005 23.5684 49.2468C23.6153 49.1931 23.6502 49.13 23.6708 49.0617C23.6913 48.9934 23.697 48.9215 23.6874 48.8508C23.6746 44.0895 21.9541 39.4907 18.8387 35.8901C15.7232 32.2895 11.4195 29.9259 6.70942 29.2288Z" fill="white"/>
<path d="M33.6094 48.8363C33.6256 48.9562 33.6847 49.0662 33.7758 49.1458C33.867 49.2255 33.9839 49.2693 34.1049 49.2693C34.2259 49.2693 34.3428 49.2255 34.4339 49.1458C34.525 49.0662 34.5842 48.9562 34.6004 48.8363C34.6004 43.8449 36.5832 39.058 40.1126 35.5285C43.6421 31.9991 48.429 30.0163 53.4204 30.0163C53.5403 30.0001 53.6503 29.9409 53.7299 29.8498C53.8095 29.7587 53.8534 29.6418 53.8534 29.5208C53.8534 29.3998 53.8095 29.2829 53.7299 29.1917C53.6503 29.1006 53.5403 29.0415 53.4204 29.0253C48.1662 29.0253 43.1272 31.1125 39.4119 34.8278C35.6966 38.5431 33.6094 43.5821 33.6094 48.8363Z" fill="white"/>
<path d="M31.043 43.7867C31.043 43.906 31.0904 44.0205 31.1748 44.1049C31.2592 44.1892 31.3736 44.2367 31.493 44.2367C31.6123 44.2367 31.7268 44.1892 31.8112 44.1049C31.8956 44.0205 31.943 43.906 31.943 43.7867C31.943 34.3207 36.793 25.7807 44.033 22.5377C44.082 22.5169 44.1262 22.4861 44.1627 22.4473C44.1992 22.4085 44.2272 22.3625 44.245 22.3123C44.2628 22.262 44.2699 22.2087 44.266 22.1555C44.262 22.1024 44.247 22.0507 44.222 22.0037C44.1629 21.907 44.0709 21.8348 43.9629 21.8005C43.8548 21.7661 43.7381 21.7719 43.634 21.8167C36.09 25.1917 31.043 34.0217 31.043 43.7867Z" fill="white"/>
<path d="M11.4825 21.3535C11.4606 21.4095 11.4508 21.4695 11.4536 21.5296C11.4564 21.5896 11.4719 21.6484 11.499 21.7021C11.5261 21.7558 11.5641 21.8032 11.6108 21.8411C11.6574 21.8791 11.7115 21.9069 11.7695 21.9225C20.5405 24.8735 26.6625 34.6905 26.6625 45.7985C26.6787 45.9185 26.7378 46.0284 26.829 46.1081C26.9201 46.1877 27.037 46.2316 27.158 46.2316C27.279 46.2316 27.3959 46.1877 27.487 46.1081C27.5782 46.0284 27.6373 45.9185 27.6535 45.7985C27.6535 34.3275 21.2695 24.1805 12.1215 21.0925C11.9974 21.0513 11.8627 21.0556 11.7415 21.1045C11.684 21.1268 11.6315 21.1603 11.587 21.2031C11.5426 21.2458 11.507 21.297 11.4825 21.3535Z" fill="white"/>
<path d="M28.6459 24.9883C28.7785 24.9883 28.9057 24.9356 28.9994 24.8418C29.0932 24.7481 29.1459 24.6209 29.1459 24.4883V13.2603C29.1554 13.1896 29.1498 13.1177 29.1292 13.0494C29.1087 12.9811 29.0738 12.918 29.0269 12.8643C28.9799 12.8106 28.9221 12.7676 28.8571 12.7381C28.7922 12.7086 28.7217 12.6934 28.6504 12.6934C28.5791 12.6934 28.5086 12.7086 28.4437 12.7381C28.3787 12.7676 28.3208 12.8106 28.2739 12.8643C28.227 12.918 28.1921 12.9811 28.1716 13.0494C28.151 13.1177 28.1453 13.1896 28.1549 13.2603V24.4933C28.1562 24.6235 28.2082 24.748 28.2999 24.8405C28.3916 24.9329 28.5157 24.986 28.6459 24.9883Z" fill="white"/>
<path d="M28.149 30.0752C28.1652 30.1952 28.2244 30.3051 28.3155 30.3848C28.4066 30.4644 28.5235 30.5083 28.6445 30.5083C28.7655 30.5083 28.8825 30.4644 28.9736 30.3848C29.0647 30.3051 29.1238 30.1952 29.14 30.0752V27.2572C29.1496 27.1866 29.1439 27.1147 29.1234 27.0464C29.1028 26.9781 29.0679 26.915 29.021 26.8613C28.9741 26.8076 28.9162 26.7645 28.8513 26.735C28.7863 26.7056 28.7158 26.6903 28.6445 26.6903C28.5732 26.6903 28.5027 26.7056 28.4378 26.735C28.3729 26.7645 28.315 26.8076 28.2681 26.8613C28.2211 26.915 28.1862 26.9781 28.1657 27.0464C28.1452 27.1147 28.1395 27.1866 28.149 27.2572V30.0752Z" fill="white"/>
<path d="M20.5526 16.6335C20.6115 16.6327 20.6699 16.6226 20.7256 16.6035C20.8473 16.5568 20.946 16.4643 21.0006 16.3459C21.0551 16.2274 21.0612 16.0924 21.0176 15.9695L19.7306 12.5035C19.6745 12.3957 19.581 12.312 19.4676 12.2681C19.3543 12.2242 19.2288 12.2231 19.1147 12.265C19.0006 12.307 18.9057 12.389 18.8477 12.4958C18.7897 12.6027 18.7726 12.727 18.7996 12.8455L20.0876 16.3145C20.124 16.4083 20.1879 16.4889 20.2709 16.5458C20.3538 16.6027 20.452 16.6333 20.5526 16.6335Z" fill="white"/>
<path d="M21.6189 19.0203C21.4957 19.0655 21.3952 19.1573 21.3391 19.2759C21.2829 19.3945 21.2757 19.5304 21.3189 19.6543L24.4189 28.0343C24.4541 28.1297 24.5175 28.2122 24.6008 28.2706C24.6841 28.329 24.7832 28.3607 24.8849 28.3613C24.9443 28.3611 25.0031 28.3492 25.0579 28.3263C25.1796 28.2796 25.2783 28.1871 25.3328 28.0687C25.3874 27.9502 25.3935 27.8152 25.3499 27.6923L22.2499 19.3123C22.2031 19.1913 22.1112 19.0932 21.9934 19.0387C21.8757 18.9842 21.7414 18.9776 21.6189 19.0203Z" fill="white"/>
<path d="M26.5168 30.8635C26.501 30.7942 26.4706 30.7291 26.4277 30.6725C26.3848 30.6159 26.3303 30.5691 26.2678 30.5352C26.2054 30.5013 26.1364 30.4811 26.0656 30.4759C25.9947 30.4708 25.9236 30.4808 25.8569 30.5053C25.7902 30.5298 25.7295 30.5682 25.6788 30.618C25.6282 30.6678 25.5887 30.7278 25.563 30.7941C25.5374 30.8603 25.5261 30.9313 25.5301 31.0022C25.534 31.0732 25.553 31.1425 25.5858 31.2055L26.9468 34.8745C26.9959 34.9921 27.0886 35.0862 27.2054 35.137C27.3222 35.1879 27.4542 35.1917 27.5738 35.1475C27.6933 35.1034 27.7912 35.0147 27.8469 34.9001C27.9026 34.7855 27.9119 34.6538 27.8728 34.5325L26.5168 30.8635Z" fill="white"/>
<path d="M37.385 14.4007C37.4463 14.4229 37.5114 14.4327 37.5766 14.4296C37.6417 14.4266 37.7056 14.4106 37.7645 14.3827C37.8234 14.3548 37.8763 14.3155 37.92 14.2671C37.9636 14.2187 37.9973 14.1622 38.019 14.1007L38.519 12.8227C38.5518 12.7597 38.5708 12.6904 38.5748 12.6194C38.5787 12.5485 38.5674 12.4775 38.5418 12.4113C38.5161 12.345 38.4767 12.285 38.426 12.2352C38.3753 12.1854 38.3146 12.147 38.2479 12.1225C38.1812 12.098 38.1101 12.088 38.0392 12.0931C37.9684 12.0983 37.8994 12.1185 37.837 12.1524C37.7745 12.1863 37.72 12.2331 37.6771 12.2897C37.6342 12.3463 37.6038 12.4114 37.588 12.4807L37.088 13.7587C37.0433 13.8832 37.0498 14.0204 37.106 14.1402C37.1622 14.2599 37.2636 14.3525 37.388 14.3977L37.385 14.4007Z" fill="white"/>
<path d="M36.3023 15.9016L33.4643 23.5926C33.4207 23.7155 33.4269 23.8505 33.4814 23.969C33.5359 24.0874 33.6346 24.1798 33.7563 24.2266C33.811 24.25 33.8699 24.262 33.9293 24.2616C34.0311 24.2609 34.1302 24.2293 34.2134 24.1709C34.2967 24.1124 34.3601 24.03 34.3953 23.9346L37.2333 16.2436C37.2661 16.1806 37.2851 16.1113 37.2891 16.0403C37.293 15.9694 37.2818 15.8984 37.2561 15.8322C37.2305 15.7659 37.191 15.7059 37.1403 15.6561C37.0896 15.6063 37.0289 15.5679 36.9622 15.5434C36.8956 15.5189 36.8244 15.5089 36.7535 15.514C36.6827 15.5192 36.6137 15.5394 36.5513 15.5733C36.4889 15.6072 36.4344 15.654 36.3914 15.7106C36.3485 15.7672 36.3181 15.8323 36.3023 15.9016Z" fill="white"/>
<path d="M30.9177 32.4173C31.0194 32.4166 31.1185 32.385 31.2017 32.3266C31.285 32.2681 31.3485 32.1857 31.3837 32.0903L33.2837 26.9293C33.2994 26.8148 33.2749 26.6985 33.2146 26.6C33.1542 26.5015 33.0616 26.427 32.9525 26.3891C32.8434 26.3511 32.7246 26.3521 32.6161 26.3919C32.5077 26.4317 32.4164 26.5078 32.3577 26.6073L30.4507 31.7483C30.4071 31.8711 30.4132 32.0062 30.4677 32.1246C30.5223 32.2431 30.6209 32.3355 30.7427 32.3823C30.7979 32.406 30.8575 32.4179 30.9177 32.4173Z" fill="white"/>
<path d="M22.6789 8.18425C22.7015 8.28155 22.7527 8.36984 22.826 8.43775C22.8992 8.50565 22.9912 8.55006 23.0899 8.56525L25.9229 8.99625L25.7149 11.8593C25.7106 11.9569 25.7349 12.0537 25.785 12.1376C25.8351 12.2216 25.9087 12.289 25.9967 12.3315C26.0847 12.3741 26.1832 12.3899 26.2801 12.3771C26.377 12.3642 26.468 12.3233 26.5419 12.2592L28.6519 10.3133L30.7519 12.2492C30.8253 12.3178 30.9178 12.3624 31.0172 12.3769C31.1166 12.3914 31.218 12.3752 31.3079 12.3306C31.3979 12.2859 31.472 12.2148 31.5204 12.1268C31.5688 12.0388 31.5892 11.9381 31.5789 11.8383L31.3709 8.97525L34.2089 8.54425C34.3058 8.52672 34.3953 8.48096 34.4663 8.41273C34.5373 8.3445 34.5866 8.25683 34.608 8.16071C34.6293 8.06459 34.6218 7.9643 34.5864 7.87242C34.551 7.78055 34.4892 7.70117 34.4089 7.64425L32.0419 6.02425L33.4729 3.54825C33.5162 3.46218 33.5337 3.36542 33.5233 3.26963C33.513 3.17383 33.4751 3.08308 33.4144 3.00828C33.3536 2.93348 33.2726 2.87783 33.1809 2.84802C33.0893 2.81821 32.991 2.81551 32.8979 2.84025L30.1539 3.68225L29.1119 1.01225C29.0736 0.921757 29.0095 0.844546 28.9276 0.790263C28.8457 0.73598 28.7496 0.707031 28.6514 0.707031C28.5531 0.707031 28.4571 0.73598 28.3752 0.790263C28.2933 0.844546 28.2292 0.921757 28.1909 1.01225L27.1359 3.67725L24.3949 2.83525C24.3005 2.8089 24.2004 2.81088 24.1071 2.84093C24.0139 2.87099 23.9315 2.9278 23.8702 3.0043C23.8089 3.0808 23.7715 3.17362 23.7626 3.27121C23.7536 3.36881 23.7736 3.46689 23.8199 3.55325L25.2509 6.02925L22.8839 7.64925C22.799 7.70667 22.7338 7.78879 22.6972 7.88448C22.6605 7.98017 22.6541 8.08481 22.6789 8.18425ZM26.1849 6.60425C26.2864 6.53309 26.3578 6.42678 26.3853 6.30594C26.4129 6.1851 26.3945 6.05834 26.3339 5.95025L25.3039 4.15025L27.2849 4.75925C27.4033 4.793 27.53 4.78186 27.6407 4.72798C27.7514 4.6741 27.8384 4.58126 27.8849 4.46725L28.6479 2.54025L29.4059 4.46725C29.4524 4.58126 29.5393 4.6741 29.6501 4.72798C29.7608 4.78186 29.8875 4.793 30.0059 4.75925L31.9869 4.15025L30.9569 5.95025C30.8963 6.05834 30.8779 6.1851 30.9055 6.30594C30.933 6.42678 31.0044 6.53309 31.1059 6.60425L32.8149 7.78825L30.7699 8.10025C30.6461 8.11973 30.534 8.18502 30.4561 8.28318C30.3781 8.38134 30.3398 8.50521 30.3489 8.63025L30.5029 10.6953L28.9829 9.27425C28.8918 9.18824 28.7712 9.14034 28.6459 9.14034C28.5206 9.14034 28.4 9.18824 28.3089 9.27425L26.7949 10.6802L26.9439 8.61525C26.9529 8.49022 26.9147 8.36634 26.8367 8.26818C26.7587 8.17002 26.6467 8.10473 26.5229 8.08525L24.4779 7.78525L26.1849 6.60425Z" fill="#EA3A51"/>
<path d="M42.5475 20.1398C42.5611 20.2381 42.6036 20.3302 42.6697 20.4043C42.7357 20.4783 42.8224 20.5311 42.9185 20.5558L45.7065 21.2348L45.2455 24.0678C45.2308 24.1654 45.2458 24.2652 45.2885 24.3542C45.3312 24.4433 45.3997 24.5174 45.485 24.5671C45.5704 24.6168 45.6687 24.6397 45.7672 24.6328C45.8657 24.626 45.9598 24.5897 46.0375 24.5288L48.3055 22.7758L50.2325 24.9008C50.3004 24.9721 50.3878 25.0218 50.4838 25.0437C50.5798 25.0656 50.6801 25.0586 50.7722 25.0237C50.8642 24.9888 50.9439 24.9274 51.0013 24.8474C51.0586 24.7673 51.091 24.6722 51.0945 24.5738L51.1395 21.7058L54.0025 21.5278C54.1004 21.5191 54.1936 21.4817 54.2704 21.4204C54.3472 21.359 54.4042 21.2764 54.4343 21.1828C54.4644 21.0892 54.4663 20.9888 54.4396 20.8942C54.413 20.7996 54.359 20.7149 54.2845 20.6508L52.0705 18.8278L53.7095 16.4748C53.763 16.3935 53.7916 16.2984 53.7918 16.2011C53.792 16.1039 53.7639 16.0086 53.7108 15.9271C53.6578 15.8456 53.5821 15.7814 53.493 15.7422C53.404 15.7031 53.3055 15.6907 53.2095 15.7068L50.4015 16.3008L49.5895 13.5518C49.5595 13.4585 49.5027 13.3761 49.4262 13.3148C49.3497 13.2536 49.2569 13.2161 49.1593 13.2072C49.0617 13.1982 48.9636 13.2181 48.8772 13.2645C48.7909 13.3108 48.72 13.3815 48.6735 13.4678L47.3915 16.0338L44.7325 14.9538C44.638 14.9074 44.5313 14.8921 44.4277 14.91C44.324 14.9278 44.2285 14.9779 44.155 15.0531C44.0814 15.1284 44.0334 15.2249 44.0179 15.329C44.0024 15.433 44.0201 15.5393 44.0685 15.6328L45.2685 18.2328L42.7925 19.6398C42.7067 19.6894 42.6376 19.7635 42.594 19.8525C42.5504 19.9415 42.5342 20.0415 42.5475 20.1398ZM46.1775 18.8768C46.2866 18.815 46.3685 18.7146 46.407 18.5953C46.4455 18.476 46.4379 18.3466 46.3855 18.2328L45.5135 16.3558L47.4355 17.1338C47.5512 17.1794 47.6797 17.1803 47.796 17.1363C47.9123 17.0923 48.008 17.0065 48.0645 16.8958L48.9905 15.0438L49.5795 17.0248C49.6152 17.1437 49.6938 17.245 49.8001 17.3092C49.9064 17.3733 50.0327 17.3956 50.1545 17.3718L52.1805 16.9408L51.0065 18.6408C50.9365 18.7428 50.9069 18.8672 50.9234 18.9899C50.9398 19.1125 51.0011 19.2247 51.0955 19.3048L52.6955 20.6218L50.6325 20.7538C50.5059 20.7624 50.3873 20.8189 50.3007 20.9117C50.2142 21.0045 50.1662 21.1268 50.1665 21.2538L50.1365 23.3238L48.7445 21.7888C48.6612 21.696 48.5458 21.6383 48.4216 21.6274C48.2975 21.6164 48.1737 21.653 48.0755 21.7298L46.4325 22.9918L46.7645 20.9468C46.7832 20.824 46.7556 20.6987 46.6871 20.5952C46.6185 20.4917 46.5138 20.4174 46.3935 20.3868L44.3825 19.8868L46.1775 18.8768Z" fill="#EA3A51"/>
<path d="M0.985029 19.8672C1.01307 19.9629 1.0691 20.0481 1.1459 20.1117C1.22271 20.1753 1.31678 20.2145 1.41603 20.2242L4.26903 20.5012L4.21903 23.3692C4.21751 23.4678 4.24518 23.5647 4.29856 23.6476C4.35194 23.7305 4.42864 23.7958 4.51903 23.8352C4.58036 23.8603 4.64579 23.8739 4.71203 23.8752C4.84447 23.8741 4.97106 23.8206 5.06403 23.7262L7.04503 21.6662L9.25903 23.4942C9.33554 23.5565 9.42897 23.5943 9.52722 23.6029C9.62548 23.6115 9.72406 23.5904 9.81021 23.5424C9.89635 23.4944 9.96612 23.4216 10.0105 23.3335C10.0548 23.2454 10.0717 23.146 10.059 23.0482L9.69903 20.2042L12.499 19.6152C12.5944 19.5928 12.6811 19.5429 12.7483 19.4716C12.8155 19.4004 12.8603 19.3109 12.8772 19.2144C12.894 19.1179 12.8821 19.0186 12.843 18.9288C12.8038 18.8389 12.7392 18.7626 12.657 18.7092L10.205 17.2232L11.499 14.6622C11.5414 14.5733 11.5566 14.4739 11.5427 14.3763C11.5288 14.2788 11.4863 14.1876 11.4208 14.1141C11.3552 14.0406 11.2693 13.9881 11.174 13.9632C11.0787 13.9384 10.9782 13.9422 10.885 13.9742L8.19603 14.9652L7.02703 12.3552C6.98408 12.2665 6.91588 12.1925 6.83099 12.1424C6.7461 12.0924 6.6483 12.0685 6.5499 12.0739C6.45149 12.0792 6.35685 12.1135 6.27788 12.1725C6.19891 12.2314 6.13912 12.3124 6.10603 12.4052L5.20603 15.1292L2.42303 14.4412C2.32675 14.4158 2.22497 14.4204 2.13142 14.4546C2.03787 14.4887 1.95704 14.5507 1.89982 14.6323C1.8426 14.7138 1.81176 14.8109 1.81144 14.9105C1.81112 15.0101 1.84134 15.1074 1.89803 15.1892L3.46303 17.5962L1.19003 19.3442C1.10741 19.4009 1.04369 19.481 1.00714 19.5742C0.970589 19.6675 0.962886 19.7696 0.985029 19.8672ZM4.39903 18.0992C4.49656 18.022 4.56178 17.9111 4.58194 17.7883C4.60209 17.6655 4.57574 17.5396 4.50803 17.4352L3.39903 15.7122L5.41003 16.2122C5.53194 16.2407 5.66009 16.2224 5.76915 16.1609C5.87821 16.0994 5.96024 15.9993 5.99903 15.8802L6.65303 13.8992L7.52003 15.7812C7.5729 15.8933 7.6655 15.9817 7.77986 16.0294C7.89423 16.0771 8.02222 16.0806 8.13903 16.0392L10.085 15.3212L9.15403 17.1982C9.09951 17.3092 9.08804 17.4364 9.12183 17.5554C9.15563 17.6743 9.2323 17.7765 9.33703 17.8422L11.099 18.9162L9.07303 19.3422C8.95187 19.3696 8.84522 19.4411 8.77387 19.5427C8.70252 19.6444 8.67156 19.769 8.68703 19.8922L8.94903 21.9422L7.35903 20.6252C7.26261 20.5458 7.13997 20.5054 7.01523 20.5119C6.8905 20.5183 6.7727 20.5713 6.68503 20.6602L5.24403 22.1502L5.28403 20.0802C5.28463 19.9557 5.23873 19.8354 5.15531 19.7429C5.0719 19.6505 4.95697 19.5924 4.83303 19.5802L2.77303 19.3802L4.39903 18.0992Z" fill="#EA3A51"/>
</svg>
