<svg width="24" height="24" viewBox="0 0 24 24" fill="none" xmlns="http://www.w3.org/2000/svg">
<path d="M12 23.375C18.2822 23.375 23.375 18.2822 23.375 12C23.375 5.71776 18.2822 0.625 12 0.625C5.71776 0.625 0.625 5.71776 0.625 12C0.625 18.2822 5.71776 23.375 12 23.375Z" stroke="white" stroke-width="1.25"/>
<path d="M13.5038 8.57303H14.3688V7.06703C13.9504 7.02097 13.5298 6.9986 13.1088 7.00003C12.8178 6.98353 12.5266 7.03087 12.2558 7.13872C11.9849 7.24657 11.7409 7.41233 11.5409 7.62439C11.3408 7.83644 11.1895 8.08967 11.0976 8.36634C11.0057 8.64301 10.9754 8.93642 11.0088 9.22603V10.552H9.63184V12.236H11.0078V16.473H12.6948V12.236H14.0148L14.2248 10.552H12.6938V9.39303C12.6938 8.90603 12.8248 8.57303 13.5038 8.57303Z" fill="white"/>
</svg>
