<svg width="25" height="16" viewBox="0 0 25 16" fill="none" xmlns="http://www.w3.org/2000/svg">
<path d="M22.592 0H1.829C1.34478 -1.80934e-06 0.880327 0.192012 0.537466 0.533936C0.194606 0.875859 0.00132372 1.33978 0 1.824V5.324H24.421V1.824C24.4197 1.33978 24.2264 0.875859 23.8835 0.533936C23.5407 0.192012 23.0762 -1.80934e-06 22.592 0Z" fill="#FF9933"/>
<path d="M0 14.1709C0 14.656 0.192698 15.1212 0.535702 15.4642C0.878706 15.8072 1.34392 15.9999 1.829 15.9999H22.592C23.0771 15.9999 23.5423 15.8072 23.8853 15.4642C24.2283 15.1212 24.421 14.656 24.421 14.1709V10.6709H0V14.1709Z" fill="#138808"/>
<path d="M24.421 5.33301H0V10.666H24.421V5.33301Z" fill="#F5F5F5"/>
<path d="M12.2103 10.2628C11.7627 10.2628 11.3252 10.1301 10.953 9.88142C10.5809 9.63276 10.2908 9.27934 10.1195 8.86583C9.94824 8.45232 9.90343 7.9973 9.99075 7.55832C10.0781 7.11934 10.2936 6.71611 10.6101 6.39963C10.9266 6.08314 11.3298 5.86762 11.7688 5.7803C12.2077 5.69298 12.6628 5.73779 13.0763 5.90907C13.4898 6.08035 13.8432 6.3704 14.0919 6.74255C14.3405 7.1147 14.4733 7.55224 14.4733 7.99982C14.4725 8.59976 14.2338 9.1749 13.8096 9.59912C13.3853 10.0233 12.8102 10.262 12.2103 10.2628ZM12.2103 6.15782C11.846 6.15782 11.4898 6.26584 11.1869 6.46825C10.884 6.67065 10.6479 6.95832 10.5085 7.29491C10.3691 7.63149 10.3326 8.00186 10.4037 8.35918C10.4747 8.71649 10.6502 9.0447 10.9078 9.30231C11.1654 9.55991 11.4936 9.73535 11.8509 9.80643C12.2082 9.8775 12.5786 9.84101 12.9152 9.7016C13.2517 9.56218 13.5394 9.32609 13.7418 9.02318C13.9442 8.72026 14.0523 8.36413 14.0523 7.99982C14.0517 7.51145 13.8575 7.04323 13.5122 6.69791C13.1668 6.35258 12.6986 6.15835 12.2103 6.15782Z" fill="#000080"/>
<path d="M12.2111 8.2579C12.353 8.2579 12.4681 8.14283 12.4681 8.0009C12.4681 7.85896 12.353 7.7439 12.2111 7.7439C12.0692 7.7439 11.9541 7.85896 11.9541 8.0009C11.9541 8.14283 12.0692 8.2579 12.2111 8.2579Z" fill="#000080"/>
<path d="M12.2112 8.03874L11.5592 8.10475L10.1592 8.03874V7.96175L11.5592 7.89575L12.2112 7.96175V8.03874Z" fill="#000080"/>
<path d="M12.21 8.03899L12.862 8.105L14.262 8.03899V7.96199L12.862 7.896L12.21 7.96199V8.03899Z" fill="#000080"/>
<path d="M12.1724 8.00073L12.1064 7.34874L12.1724 5.94873H12.2494L12.3154 7.34874L12.2494 8.00073H12.1724Z" fill="#000080"/>
<path d="M12.1724 7.99976L12.1064 8.65176L12.1724 10.0518H12.2494L12.3154 8.65176L12.2494 7.99976H12.1724Z" fill="#000080"/>
<path d="M12.1834 8.02773L11.6754 7.61372L10.7324 6.57573L10.7864 6.52173L11.8234 7.46573L12.2374 7.97372L12.1834 8.02773Z" fill="#000080"/>
<path d="M12.1836 8.02663L12.5976 8.53464L13.6346 9.47864L13.6886 9.42462L12.7446 8.38763L12.2366 7.97363L12.1836 8.02663Z" fill="#000080"/>
<path d="M12.1836 7.97301L12.5976 7.465L13.6346 6.521L13.6886 6.575L12.7446 7.612L12.2366 8.026L12.1836 7.97301Z" fill="#000080"/>
<path d="M12.1834 7.9729L11.6754 8.3869L10.7324 9.42392L10.7864 9.47791L11.8234 8.53391L12.2374 8.02591L12.1834 7.9729Z" fill="#000080"/>
<path d="M12.2248 8.03593L11.6478 8.34593L10.3288 8.82092L10.2998 8.74994L11.5688 8.14993L12.1968 7.96094L12.2248 8.03593Z" fill="#000080"/>
<path d="M12.2243 8.03578L12.8523 7.84677L14.1213 7.24678L14.0923 7.17578L12.7733 7.65077L12.1963 7.96077L12.2243 8.03578Z" fill="#000080"/>
<path d="M12.1747 8.01483L11.8647 7.43784L11.3896 6.11884L11.4606 6.08984L12.0607 7.35884L12.2496 7.98683L12.1747 8.01483Z" fill="#000080"/>
<path d="M12.1748 8.01384L12.3638 8.64183L12.9638 9.91084L13.0348 9.88185L12.5598 8.56285L12.2498 7.98584L12.1748 8.01384Z" fill="#000080"/>
<path d="M12.1948 8.03578L11.5668 7.84677L10.2979 7.24678L10.3268 7.17578L11.6458 7.65077L12.2228 7.96077L12.1948 8.03578Z" fill="#000080"/>
<path d="M12.1953 8.03593L12.7723 8.34593L14.0913 8.82092L14.1203 8.74994L12.8513 8.14993L12.2233 7.96094L12.1953 8.03593Z" fill="#000080"/>
<path d="M12.1748 7.98488L12.3638 7.35689L12.9638 6.08789L13.0348 6.11688L12.5598 7.43588L12.2498 8.01288L12.1748 7.98488Z" fill="#000080"/>
<path d="M12.1747 7.98486L11.8647 8.56187L11.3896 9.88087L11.4606 9.90987L12.0607 8.64085L12.2496 8.01286L12.1747 7.98486Z" fill="#000080"/>
<path d="M12.2103 8.34581C12.4013 8.34581 12.5563 8.1909 12.5563 7.99981C12.5563 7.80872 12.4013 7.65381 12.2103 7.65381C12.0192 7.65381 11.8643 7.80872 11.8643 7.99981C11.8643 8.1909 12.0192 8.34581 12.2103 8.34581Z" fill="#F5F5F5"/>
<path d="M12.2109 8.20799C12.3258 8.20799 12.4189 8.11487 12.4189 7.99999C12.4189 7.88512 12.3258 7.79199 12.2109 7.79199C12.0961 7.79199 12.0029 7.88512 12.0029 7.99999C12.0029 8.11487 12.0961 8.20799 12.2109 8.20799Z" fill="#000080"/>
</svg>
