<svg width="18" height="18" viewBox="0 0 18 18" fill="none" xmlns="http://www.w3.org/2000/svg">
<path d="M9 18C13.9706 18 18 13.9706 18 9C18 4.02944 13.9706 0 9 0C4.02944 0 0 4.02944 0 9C0 13.9706 4.02944 18 9 18Z" fill="#707070"/>
<path d="M8.3793 13.9841V7.38405H9.4933V13.9841H8.3793ZM8.9503 6.02105C8.74809 6.02746 8.55116 5.95585 8.4003 5.82105C8.32768 5.75651 8.27002 5.6769 8.23134 5.58778C8.19265 5.49866 8.17387 5.40217 8.1763 5.30505C8.17241 5.20671 8.1905 5.10873 8.22925 5.01826C8.268 4.92779 8.32643 4.84709 8.4003 4.78205C8.55179 4.64831 8.74828 4.57686 8.9503 4.58205C9.15231 4.57686 9.3488 4.64831 9.5003 4.78205C9.57417 4.84709 9.6326 4.92779 9.67135 5.01826C9.7101 5.10873 9.72819 5.20671 9.7243 5.30505C9.72673 5.40217 9.70795 5.49866 9.66926 5.58778C9.63057 5.6769 9.57291 5.75651 9.5003 5.82105C9.34944 5.95585 9.15251 6.02746 8.9503 6.02105Z" fill="white"/>
</svg>
