<svg width="24" height="24" viewBox="0 0 24 24" fill="none" xmlns="http://www.w3.org/2000/svg">
<path d="M12 23.375C18.2822 23.375 23.375 18.2822 23.375 12C23.375 5.71776 18.2822 0.625 12 0.625C5.71776 0.625 0.625 5.71776 0.625 12C0.625 18.2822 5.71776 23.375 12 23.375Z" stroke="white" stroke-width="1.25"/>
<path d="M16.451 9.785C16.4434 9.39229 16.369 9.00374 16.231 8.636C16.1086 8.32092 15.9217 8.03488 15.6824 7.7962C15.443 7.55753 15.1564 7.37149 14.841 7.25C14.4732 7.11217 14.0847 7.03778 13.692 7.03C13.185 7.006 13.024 7 11.738 7C10.452 7 10.29 7.006 9.78498 7.028C9.39227 7.03562 9.00372 7.11002 8.63598 7.248C8.31887 7.36814 8.03209 7.5566 7.79598 7.8C7.55635 8.0355 7.37044 8.31999 7.25098 8.634C7.11316 9.00179 7.03877 9.39031 7.03098 9.783C7.00698 10.29 7.00098 10.451 7.00098 11.737C7.00098 13.023 7.00598 13.184 7.02798 13.69C7.03654 14.0829 7.11195 14.4714 7.25098 14.839C7.37255 15.1534 7.55832 15.4391 7.79644 15.6777C8.03456 15.9164 8.3198 16.1027 8.63398 16.225C9.00177 16.3628 9.39029 16.4372 9.78298 16.445C10.288 16.467 10.449 16.473 11.735 16.473C13.021 16.473 13.182 16.468 13.687 16.445C14.0797 16.4374 14.4682 16.363 14.836 16.225C15.151 16.1034 15.4371 15.9173 15.6759 15.6786C15.9148 15.4399 16.1011 15.1539 16.223 14.839C16.3608 14.4712 16.4351 14.0827 16.443 13.69C16.465 13.185 16.471 13.024 16.471 11.738C16.471 10.452 16.469 10.29 16.451 9.785ZM15.594 13.653C15.5908 13.9532 15.5357 14.2506 15.431 14.532C15.3521 14.7365 15.2312 14.9222 15.0762 15.0772C14.9212 15.2322 14.7355 15.3531 14.531 15.432C14.2496 15.5366 13.9522 15.5917 13.652 15.595C13.152 15.617 13.003 15.623 11.739 15.623C10.475 15.623 10.323 15.618 9.82598 15.595C9.52705 15.591 9.23105 15.5356 8.95098 15.431C8.74544 15.3557 8.55951 15.235 8.40698 15.078C8.24915 14.9252 8.12751 14.7389 8.05098 14.533C7.94642 14.2516 7.89127 13.9542 7.88798 13.654C7.86598 13.154 7.85998 13.004 7.85998 11.741C7.85998 10.478 7.86498 10.325 7.88798 9.828C7.89115 9.52779 7.9463 9.23039 8.05098 8.949C8.12536 8.7413 8.24648 8.55347 8.40498 8.4C8.55875 8.2445 8.74528 8.12527 8.95098 8.051C9.23177 7.94669 9.52845 7.89155 9.82798 7.888C10.327 7.866 10.477 7.86 11.741 7.86C13.005 7.86 13.157 7.866 13.651 7.888C13.9512 7.89118 14.2486 7.94632 14.53 8.051C14.7355 8.12631 14.9215 8.24696 15.074 8.404C15.2306 8.55684 15.3512 8.74268 15.427 8.948C15.5315 9.22943 15.5867 9.5268 15.59 9.827C15.612 10.327 15.618 10.476 15.618 11.74C15.618 13.004 15.616 13.153 15.594 13.653Z" fill="white"/>
<path d="M11.7377 9.3042C11.2565 9.3042 10.7861 9.44689 10.386 9.71423C9.98588 9.98157 9.67404 10.3616 9.48989 10.8061C9.30574 11.2507 9.25756 11.7399 9.35144 12.2119C9.44532 12.6838 9.67704 13.1173 10.0173 13.4576C10.3576 13.7979 10.7911 14.0296 11.263 14.1234C11.735 14.2173 12.2242 14.1691 12.6688 13.985C13.1133 13.8009 13.4933 13.489 13.7606 13.0889C14.028 12.6888 14.1707 12.2184 14.1707 11.7372C14.1704 11.092 13.914 10.4733 13.4578 10.0171C13.0016 9.56088 12.3829 9.30446 11.7377 9.3042ZM11.7377 13.3162C11.4256 13.3162 11.1205 13.2237 10.861 13.0503C10.6015 12.8769 10.3992 12.6304 10.2798 12.3421C10.1604 12.0537 10.1291 11.7364 10.19 11.4303C10.2509 11.1242 10.4012 10.8431 10.6219 10.6224C10.8426 10.4017 11.1237 10.2514 11.4298 10.1905C11.7359 10.1296 12.0532 10.1609 12.3416 10.2803C12.6299 10.3998 12.8763 10.602 13.0497 10.8615C13.2231 11.121 13.3157 11.4261 13.3157 11.7382C13.3154 12.1566 13.1491 12.5578 12.8532 12.8537C12.5573 13.1496 12.1561 13.3159 11.7377 13.3162Z" fill="white"/>
<path d="M14.8352 9.20789C14.8352 9.32023 14.8019 9.43005 14.7395 9.52346C14.6771 9.61687 14.5884 9.68967 14.4846 9.73266C14.3808 9.77565 14.2666 9.7869 14.1564 9.76498C14.0462 9.74307 13.945 9.68897 13.8656 9.60954C13.7861 9.5301 13.732 9.42888 13.7101 9.3187C13.6882 9.20852 13.6995 9.09432 13.7425 8.99053C13.7855 8.88674 13.8583 8.79803 13.9517 8.73562C14.0451 8.67321 14.1549 8.63989 14.2672 8.63989C14.4179 8.63989 14.5623 8.69974 14.6689 8.80626C14.7754 8.91278 14.8352 9.05725 14.8352 9.20789Z" fill="white"/>
</svg>
