<svg width="48" height="64" viewBox="0 0 48 64" fill="none" xmlns="http://www.w3.org/2000/svg">
<path fill-rule="evenodd" clip-rule="evenodd" d="M4 4V60H44V20H31.5C30.1193 20 29 18.8807 29 17.5V4H4ZM33 6.49068L42.523 16H33V6.49068ZM0 2.5C0 1.11929 1.11929 0 2.5 0H31.1264C31.7889 0 32.4242 0.2629 32.8929 0.730967L47.2665 15.084C47.7361 15.5529 48 16.1893 48 16.853V61.5C48 62.8807 46.8807 64 45.5 64H2.5C1.11929 64 0 62.8807 0 61.5V2.5ZM10 28C8.89543 28 8 28.8954 8 30C8 31.1046 8.89543 32 10 32H38C39.1046 32 40 31.1046 40 30C40 28.8954 39.1046 28 38 28H10ZM8 40C8 38.8954 8.89543 38 10 38H38C39.1046 38 40 38.8954 40 40C40 41.1046 39.1046 42 38 42H10C8.89543 42 8 41.1046 8 40ZM10 48C8.89543 48 8 48.8954 8 50C8 51.1046 8.89543 52 10 52H38C39.1046 52 40 51.1046 40 50C40 48.8954 39.1046 48 38 48H10Z" fill="url(#paint0_linear_2139_423)"/>
<defs>
<linearGradient id="paint0_linear_2139_423" x1="24" y1="0" x2="24" y2="64" gradientUnits="userSpaceOnUse">
<stop stop-color="#FFE2E2"/>
<stop offset="1" stop-color="#9F7A6A"/>
</linearGradient>
</defs>
</svg>
