<svg width="24" height="24" viewBox="0 0 24 24" fill="none" xmlns="http://www.w3.org/2000/svg">
<path d="M12 23.375C18.2822 23.375 23.375 18.2822 23.375 12C23.375 5.71776 18.2822 0.625 12 0.625C5.71776 0.625 0.625 5.71776 0.625 12C0.625 18.2822 5.71776 23.375 12 23.375Z" stroke="white" stroke-width="1.25"/>
<path d="M16.4716 16.472V12.998C16.4716 11.298 16.1056 9.98904 14.1186 9.98904C13.7453 9.97604 13.3755 10.0646 13.0486 10.2453C12.7218 10.426 12.4501 10.692 12.2626 11.015H12.2346V10.148H10.3516V16.472H12.3136V13.34C12.3136 12.515 12.4696 11.718 13.4906 11.718C14.5116 11.718 14.5116 12.659 14.5116 13.393V16.472H16.4716Z" fill="white"/>
<path d="M7.16016 10.1479H9.12016V16.4709H7.16016V10.1479Z" fill="white"/>
<path d="M8.13825 7.00002C7.91172 6.99883 7.68995 7.06498 7.50109 7.19007C7.31223 7.31516 7.16479 7.49356 7.07751 7.7026C6.99023 7.91164 6.96703 8.1419 7.01086 8.36415C7.05469 8.5864 7.16357 8.79062 7.32368 8.95087C7.48379 9.11112 7.68791 9.22018 7.91012 9.26421C8.13233 9.30823 8.36262 9.28523 8.57174 9.19813C8.78085 9.11103 8.95937 8.96376 9.08463 8.77501C9.20989 8.58626 9.27624 8.36454 9.27525 8.13802C9.27525 7.83637 9.15549 7.54707 8.94229 7.33368C8.72909 7.12029 8.43989 7.00028 8.13825 7.00002Z" fill="white"/>
</svg>
