<svg width="64" height="57" viewBox="0 0 64 57" fill="none" xmlns="http://www.w3.org/2000/svg">
<path fill-rule="evenodd" clip-rule="evenodd" d="M23.9056 8.9259L22.7613 4.57781L15.8959 8.9259H23.9056ZM26.2819 2.2384L27.6672 7.50268L38.7755 0.467427C40.49 -0.618411 42.7654 0.275826 43.2819 2.2384L45.0417 8.9259H49C52.866 8.9259 56 12.0599 56 15.9259V24.9259H60C62.2091 24.9259 64 26.7168 64 28.9259V36.9259C64 39.135 62.2091 40.9259 60 40.9259H56V49.9259C56 53.7919 52.866 56.9259 49 56.9259H7C3.13401 56.9259 0 53.7919 0 49.9259V15.9259C0 12.0599 3.13401 8.9259 7 8.9259H8.42L21.7755 0.467427C23.49 -0.618411 25.7654 0.275826 26.2819 2.2384ZM39.7613 4.57781L40.9056 8.9259H32.8959L39.7613 4.57781ZM52 15.9259V24.9259H48C43.5817 24.9259 40 28.5076 40 32.9259C40 37.3442 43.5817 40.9259 48 40.9259H52V49.9259C52 51.5828 50.6569 52.9259 49 52.9259H7C5.34315 52.9259 4 51.5828 4 49.9259V15.9259C4 14.269 5.34315 12.9259 7 12.9259H49C50.6569 12.9259 52 14.269 52 15.9259ZM60 28.9259H48C45.7909 28.9259 44 30.7168 44 32.9259C44 35.135 45.7909 36.9259 48 36.9259H60V28.9259ZM48 34.9259C49.1046 34.9259 50 34.0305 50 32.9259C50 31.8213 49.1046 30.9259 48 30.9259C46.8954 30.9259 46 31.8213 46 32.9259C46 34.0305 46.8954 34.9259 48 34.9259Z" fill="url(#paint0_linear_2139_461)"/>
<defs>
<linearGradient id="paint0_linear_2139_461" x1="32" y1="0" x2="32" y2="56.9259" gradientUnits="userSpaceOnUse">
<stop stop-color="#FFE2E2"/>
<stop offset="1" stop-color="#9F7A6A"/>
</linearGradient>
</defs>
</svg>
