<svg width="151" height="19" viewBox="0 0 151 19" fill="none" xmlns="http://www.w3.org/2000/svg">
<path fill-rule="evenodd" clip-rule="evenodd" d="M32.5027 4.88934H42.7103C45.0263 4.88934 46.9134 6.71212 46.9134 8.94235V18.2278H31.6664C30.2511 18.2278 29.0931 17.1127 29.0931 15.7617C29.0931 14.6895 29.0931 13.6172 29.0931 12.5236C29.0931 11.2584 30.1653 10.229 31.4734 10.229H39.944L39.0433 12.1161H32.8244C32.5456 12.1161 32.2454 12.3306 32.2454 12.6094C32.2454 13.4457 32.2454 14.3035 32.2454 15.1398C32.2454 15.44 32.5456 15.633 32.8244 15.633H43.6324V9.54279C43.6324 8.36335 42.5817 7.46268 41.4022 7.46268H31.2804L32.5027 4.88934ZM116.351 0.0214442V18.2278H101.468C100.053 18.2278 98.8949 17.1127 98.8949 15.7617C98.8949 13.4886 98.8949 11.2155 98.8949 8.94235C98.8949 6.71212 100.782 4.88934 103.098 4.88934H111.569L110.325 7.48412H104.406C103.227 7.48412 102.176 8.38479 102.176 9.56424C102.176 11.4299 102.176 13.2956 102.176 15.1612C102.176 15.4615 102.476 15.6545 102.755 15.6545H113.027V0.0214442H116.351ZM64.069 18.2278H67.3715C67.3715 15.1398 67.3715 12.0304 67.3715 8.94235C67.3715 6.71212 65.4844 4.88934 63.1684 4.88934H56.1775L54.9122 7.46268H61.8602C63.0397 7.46268 64.0905 8.36335 64.0905 9.54279V18.2278H64.069ZM50.366 0.0214442V18.2278H53.6685V0.0214442H50.366ZM22.8956 18.2278H26.1766C26.1766 15.1398 26.1766 12.0304 26.1766 8.94235C26.1766 6.71212 24.2895 4.88934 21.9735 4.88934C15.4758 4.88934 6.87659 4.88934 0.378906 4.88934V18.2278H3.68136V7.97735C3.68136 7.67712 3.98158 7.48412 4.26036 7.48412C6.19036 7.48412 9.1497 7.48412 11.0797 7.48412C11.3585 7.48412 11.6587 7.69857 11.6587 7.97735V18.2493H14.9612V7.97735C14.9612 7.67712 15.2614 7.48412 15.5402 7.48412C16.9126 7.48412 19.3358 7.48412 20.7083 7.48412C21.8877 7.48412 22.9385 8.38479 22.9385 9.56424V18.2278H22.8956ZM133.549 4.88934H125.272C122.956 4.88934 121.068 6.71212 121.068 8.94235V18.2278H124.371C124.371 15.3328 124.371 12.4378 124.371 9.54279C124.371 8.36335 125.422 7.46268 126.601 7.46268H132.305L133.549 4.88934ZM91.3679 4.88934C93.6839 4.88934 95.571 6.71212 95.571 8.94235V18.2278H92.2685C92.2685 15.3328 92.2685 12.4378 92.2685 9.54279C92.2685 8.36335 91.2177 7.46268 90.0383 7.46268H82.1467V18.2278H78.8443V4.88934C83.026 4.88934 87.2076 4.88934 91.3679 4.88934ZM71.4674 5.72568L74.7698 3.83856V18.2278H71.4674V5.72568ZM74.7698 1.97289V0H71.4674V3.86001L74.7698 1.97289ZM135.844 4.88934H146.051C148.367 4.88934 150.254 6.71212 150.254 8.94235V18.2278H135.007C133.592 18.2278 132.434 17.1127 132.434 15.7617C132.434 14.6895 132.434 13.6172 132.434 12.5236C132.434 11.2584 133.506 10.229 134.814 10.229H143.285L142.384 12.1161H136.165C135.887 12.1161 135.586 12.3306 135.586 12.6094C135.586 13.4457 135.586 14.3035 135.586 15.1398C135.586 15.44 135.887 15.633 136.165 15.633H146.973V9.54279C146.973 8.36335 145.923 7.46268 144.743 7.46268H134.621L135.844 4.88934Z" fill="white"/>
</svg>
