<svg width="82" height="68" viewBox="0 0 82 68" fill="none" xmlns="http://www.w3.org/2000/svg">
<path fill-rule="evenodd" clip-rule="evenodd" d="M5.76241 15.2623L24.9996 7.76711C25.0263 7.93231 25.087 8.09542 25.1848 8.24652L34.6251 22.8298C34.9911 23.3953 35.7393 23.569 36.317 23.2227L38.9963 21.6169V31.8293C38.9963 32.5196 39.556 33.0793 40.2463 33.0793H41.753C42.4433 33.0793 43.003 32.5196 43.003 31.8293V21.6171L45.6819 23.2227C46.2596 23.569 47.0078 23.3953 47.3739 22.8298L56.8142 8.24652C56.9131 8.09374 56.974 7.9287 57.0002 7.76161L76.2669 15.284L73.7906 27.7427L65.5124 26.1013C63.1936 25.6416 61.0331 27.4158 61.0331 29.7797V62.1087H20.8309V29.7959C20.8309 27.4161 18.6428 25.6382 16.3134 26.1253L8.62821 27.7322L5.76241 15.2623ZM41.5889 19.5362C41.6174 19.4661 41.6528 19.3977 41.6951 19.3316L50.3158 5.89117H31.6831L40.3038 19.3316C40.3462 19.3977 40.3815 19.4661 40.4101 19.5362H41.5889ZM29.5795 0.891174C29.1137 0.891174 28.652 0.977935 28.2181 1.14702L2.94087 10.9955C1.20696 11.6711 0.230737 13.516 0.647532 15.3296L4.02973 30.0465C4.48713 32.0368 6.45301 33.2952 8.45196 32.8772L15.8309 31.3343V63.3587C15.8309 65.4298 17.5098 67.1087 19.5809 67.1087H62.2831C64.3541 67.1087 66.0331 65.4298 66.0331 63.3587V31.3019L74.0437 32.8902C76.0746 33.2929 78.0475 31.9735 78.4511 29.9429L81.3751 15.2316C81.7295 13.4487 80.7542 11.6684 79.0609 11.0073L53.8089 1.14799C53.3742 0.978269 52.9116 0.891174 52.445 0.891174H29.5795Z" fill="url(#paint0_linear_2139_1745)"/>
<defs>
<linearGradient id="paint0_linear_2139_1745" x1="40.9996" y1="0.891174" x2="40.9996" y2="67.1087" gradientUnits="userSpaceOnUse">
<stop stop-color="#FFE2E2"/>
<stop offset="1" stop-color="#9F7A6A"/>
</linearGradient>
</defs>
</svg>
