<svg width="24" height="24" viewBox="0 0 24 24" fill="none" xmlns="http://www.w3.org/2000/svg">
<path d="M12 23.375C18.2822 23.375 23.375 18.2822 23.375 12C23.375 5.71776 18.2822 0.625 12 0.625C5.71776 0.625 0.625 5.71776 0.625 12C0.625 18.2822 5.71776 23.375 12 23.375Z" stroke="white" stroke-width="1.25"/>
<path d="M17.428 9.00001C17.0357 9.17126 16.6208 9.28509 16.196 9.33801C16.6434 9.07233 16.9779 8.65177 17.136 8.15601C16.7168 8.40442 16.2582 8.57928 15.78 8.67301C15.4869 8.35945 15.1063 8.14134 14.6876 8.04708C14.2689 7.95281 13.8315 7.98675 13.4323 8.14447C13.0331 8.30219 12.6907 8.5764 12.4495 8.93142C12.2083 9.28643 12.0796 9.70582 12.08 10.135C12.0784 10.299 12.0952 10.4627 12.13 10.623C11.2802 10.5814 10.4487 10.3609 9.68987 9.97617C8.93101 9.5914 8.26183 9.05092 7.726 8.39001C7.45085 8.86028 7.36563 9.41786 7.48774 9.94885C7.60984 10.4798 7.93007 10.9442 8.383 11.247C8.04457 11.2381 7.71325 11.1479 7.417 10.984V11.007C7.4178 11.5006 7.58855 11.9788 7.90053 12.3613C8.2125 12.7437 8.64667 13.0071 9.13 13.107C8.94693 13.1551 8.75828 13.1787 8.569 13.177C8.43477 13.1793 8.30068 13.1672 8.169 13.141C8.30732 13.5656 8.57397 13.9369 8.93219 14.2036C9.2904 14.4703 9.72254 14.6193 10.169 14.63C9.41203 15.2216 8.47874 15.5427 7.518 15.542C7.34489 15.5436 7.17186 15.5339 7 15.513C7.97772 16.1429 9.11698 16.476 10.28 16.472C11.0805 16.4776 11.8741 16.3241 12.6148 16.0204C13.3554 15.7167 14.0283 15.2689 14.5945 14.7029C15.1606 14.137 15.6087 13.4642 15.9126 12.7236C16.2165 11.9831 16.3703 11.1895 16.365 10.389C16.365 10.294 16.365 10.203 16.357 10.113C16.7788 9.81029 17.1417 9.43311 17.428 9.00001Z" fill="white"/>
</svg>
