<svg width="24" height="24" viewBox="0 0 24 24" fill="none" xmlns="http://www.w3.org/2000/svg">
<path d="M12 23.375C18.2822 23.375 23.375 18.2822 23.375 12C23.375 5.71776 18.2822 0.625 12 0.625C5.71776 0.625 0.625 5.71776 0.625 12C0.625 18.2822 5.71776 23.375 12 23.375Z" stroke="white" stroke-width="1.25"/>
<path d="M17.5697 8.727C17.1347 8.21 16.3327 8 14.8007 8H9.23769C7.67069 8 6.85469 8.224 6.42169 8.774C6.02726 9.51527 5.87943 10.363 5.99969 11.194V13.283C5.99969 15.402 6.49969 16.477 9.23769 16.477H14.7997C15.6982 16.6004 16.6095 16.3703 17.3417 15.835C17.6249 15.4791 17.833 15.0694 17.9533 14.6308C18.0737 14.1921 18.1037 13.7336 18.0417 13.283V11.194C18.1648 10.342 17.9986 9.47336 17.5697 8.727ZM13.7287 12.527L11.1997 13.844C11.1405 13.875 11.0744 13.8902 11.0076 13.8881C10.9409 13.886 10.8758 13.8668 10.8187 13.8322C10.7616 13.7976 10.7143 13.7488 10.6816 13.6906C10.6488 13.6324 10.6316 13.5668 10.6317 13.5V10.868C10.6316 10.8013 10.6486 10.7356 10.6813 10.6775C10.7139 10.6193 10.761 10.5705 10.818 10.5358C10.875 10.5011 10.94 10.4817 11.0067 10.4795C11.0734 10.4772 11.1395 10.4922 11.1987 10.523L13.7247 11.835C13.7878 11.8677 13.8408 11.9171 13.8777 11.9779C13.9146 12.0387 13.9342 12.1084 13.9342 12.1795C13.9342 12.2506 13.9146 12.3203 13.8777 12.3811C13.8408 12.4419 13.7878 12.4913 13.7247 12.524L13.7287 12.527Z" fill="white"/>
</svg>
